# Blender v3.2.2 OBJ File: ''
# www.blender.org
mtllib UV-Sphere.mtl
o Sphere
v 0.000000 0.980785 -0.195090
v 0.000000 0.923880 -0.382683
v 0.000000 0.831470 -0.555570
v 0.000000 0.707107 -0.707107
v 0.000000 0.555570 -0.831470
v 0.000000 0.382683 -0.923880
v 0.000000 0.195090 -0.980785
v 0.000000 -0.555570 -0.831470
v 0.000000 -0.707107 -0.707107
v 0.000000 -0.831470 -0.555570
v 0.038060 0.980785 -0.191342
v 0.074658 0.923880 -0.375330
v 0.108386 0.831470 -0.544895
v 0.137950 0.707107 -0.693520
v 0.162212 0.555570 -0.815493
v 0.180240 0.382683 -0.906127
v 0.191342 0.195090 -0.961940
v 0.195090 -0.000000 -0.980785
v 0.191342 -0.195090 -0.961940
v 0.180240 -0.382683 -0.906127
v 0.162212 -0.555570 -0.815493
v 0.137950 -0.707107 -0.693520
v 0.108386 -0.831470 -0.544895
v 0.074658 -0.923880 -0.375330
v 0.038060 -0.980785 -0.191342
v 0.074658 0.980785 -0.180240
v 0.146447 0.923880 -0.353553
v 0.212608 0.831470 -0.513280
v 0.270598 0.707107 -0.653281
v 0.318190 0.555570 -0.768178
v 0.353553 0.382683 -0.853553
v 0.375330 0.195090 -0.906127
v 0.382683 -0.000000 -0.923879
v 0.375330 -0.195090 -0.906127
v 0.353553 -0.382683 -0.853553
v 0.318190 -0.555570 -0.768178
v 0.270598 -0.707107 -0.653281
v 0.212608 -0.831470 -0.513280
v 0.146447 -0.923880 -0.353553
v 0.074658 -0.980785 -0.180240
v 0.108386 0.980785 -0.162212
v 0.212608 0.923880 -0.318190
v 0.308658 0.831470 -0.461940
v 0.392848 0.707107 -0.587938
v 0.461940 0.555570 -0.691342
v 0.513280 0.382683 -0.768178
v 0.544895 0.195090 -0.815493
v 0.555570 -0.000000 -0.831469
v 0.544895 -0.195090 -0.815493
v 0.513280 -0.382683 -0.768178
v 0.461940 -0.555570 -0.691342
v 0.392848 -0.707107 -0.587938
v 0.308658 -0.831470 -0.461940
v 0.212608 -0.923880 -0.318190
v 0.108386 -0.980785 -0.162212
v 0.137950 0.980785 -0.137950
v 0.270598 0.923880 -0.270598
v 0.392848 0.831470 -0.392847
v 0.500000 0.707107 -0.500000
v 0.587938 0.555570 -0.587938
v 0.653281 0.382683 -0.653281
v 0.693520 0.195090 -0.693520
v 0.707107 -0.000000 -0.707107
v 0.693520 -0.195090 -0.693520
v 0.653282 -0.382683 -0.653281
v 0.587938 -0.555570 -0.587938
v 0.500000 -0.707107 -0.500000
v 0.392848 -0.831470 -0.392847
v 0.270598 -0.923880 -0.270598
v 0.137950 -0.980785 -0.137950
v 0.162212 0.980785 -0.108386
v 0.318190 0.923880 -0.212607
v 0.461940 0.831470 -0.308658
v 0.587938 0.707107 -0.392847
v 0.691342 0.555570 -0.461940
v 0.768178 0.382683 -0.513280
v 0.815493 0.195090 -0.544895
v 0.831470 -0.000000 -0.555570
v 0.815493 -0.195090 -0.544895
v 0.768178 -0.382683 -0.513280
v 0.691342 -0.555570 -0.461940
v 0.587938 -0.707107 -0.392847
v 0.461940 -0.831470 -0.308658
v 0.318190 -0.923880 -0.212608
v 0.162212 -0.980785 -0.108386
v 0.180240 0.980785 -0.074658
v 0.353554 0.923880 -0.146447
v 0.513280 0.831470 -0.212607
v 0.653281 0.707107 -0.270598
v 0.768178 0.555570 -0.318190
v 0.853553 0.382683 -0.353553
v 0.906127 0.195090 -0.375330
v 0.923879 -0.000000 -0.382683
v 0.906127 -0.195090 -0.375330
v 0.853553 -0.382683 -0.353553
v 0.768178 -0.555570 -0.318190
v 0.653281 -0.707107 -0.270598
v 0.513280 -0.831470 -0.212607
v 0.353554 -0.923880 -0.146447
v 0.180240 -0.980785 -0.074658
v 0.191342 0.980785 -0.038060
v 0.375330 0.923880 -0.074658
v 0.544895 0.831470 -0.108386
v 0.693520 0.707107 -0.137950
v 0.815493 0.555570 -0.162212
v 0.906127 0.382683 -0.180240
v 0.961940 0.195090 -0.191342
v 0.980785 -0.000000 -0.195090
v 0.961940 -0.195090 -0.191342
v 0.906128 -0.382683 -0.180240
v 0.815493 -0.555570 -0.162212
v 0.693520 -0.707107 -0.137950
v 0.544895 -0.831470 -0.108386
v 0.375330 -0.923880 -0.074658
v 0.191342 -0.980785 -0.038060
v 0.195090 0.980785 0.000000
v 0.382684 0.923880 0.000000
v 0.555570 0.831470 0.000000
v 0.707107 0.707107 0.000000
v 0.831469 0.555570 0.000000
v 0.923879 0.382683 0.000000
v 0.980785 0.195090 0.000000
v 1.000000 -0.000000 0.000000
v 0.980785 -0.195090 0.000000
v 0.923880 -0.382683 0.000000
v 0.831469 -0.555570 0.000000
v 0.707107 -0.707107 0.000000
v 0.555570 -0.831470 0.000000
v 0.382684 -0.923880 0.000000
v 0.195090 -0.980785 0.000000
v 0.191342 0.980785 0.038060
v 0.375330 0.923880 0.074658
v 0.544895 0.831470 0.108386
v 0.693520 0.707107 0.137950
v 0.815493 0.555570 0.162212
v 0.906127 0.382683 0.180240
v 0.961940 0.195090 0.191342
v 0.980785 -0.000000 0.195090
v 0.961940 -0.195090 0.191342
v 0.906127 -0.382683 0.180240
v 0.815493 -0.555570 0.162212
v 0.693520 -0.707107 0.137950
v 0.544895 -0.831470 0.108386
v 0.375330 -0.923880 0.074658
v 0.191342 -0.980785 0.038060
v 0.180240 0.980785 0.074658
v 0.353553 0.923880 0.146447
v 0.513280 0.831470 0.212608
v 0.653281 0.707107 0.270598
v 0.768178 0.555570 0.318190
v 0.853553 0.382683 0.353553
v 0.906127 0.195090 0.375330
v 0.923879 -0.000000 0.382683
v 0.906127 -0.195090 0.375330
v 0.853553 -0.382683 0.353554
v 0.768178 -0.555570 0.318190
v 0.653281 -0.707107 0.270598
v 0.513280 -0.831470 0.212608
v 0.353554 -0.923880 0.146447
v 0.180240 -0.980785 0.074658
v 0.162212 0.980785 0.108386
v 0.318190 0.923880 0.212608
v 0.461940 0.831470 0.308658
v 0.587938 0.707107 0.392847
v 0.691341 0.555570 0.461940
v 0.768178 0.382683 0.513280
v 0.815493 0.195090 0.544895
v 0.831469 -0.000000 0.555570
v 0.815493 -0.195090 0.544895
v 0.768178 -0.382683 0.513280
v 0.691342 -0.555570 0.461940
v 0.587938 -0.707107 0.392847
v 0.461940 -0.831470 0.308658
v 0.318190 -0.923880 0.212608
v 0.162212 -0.980785 0.108386
v 0.137950 0.980785 0.137950
v 0.270598 0.923880 0.270598
v 0.392847 0.831470 0.392847
v 0.500000 0.707107 0.500000
v 0.587938 0.555570 0.587938
v 0.653281 0.382683 0.653281
v 0.693520 0.195090 0.693520
v 0.707106 -0.000000 0.707107
v 0.693520 -0.195090 0.693520
v 0.653281 -0.382683 0.653282
v 0.587938 -0.555570 0.587938
v 0.500000 -0.707107 0.500000
v 0.392847 -0.831470 0.392847
v 0.270598 -0.923880 0.270598
v 0.137950 -0.980785 0.137950
v 0.108386 0.980785 0.162212
v 0.212608 0.923880 0.318190
v 0.308658 0.831470 0.461940
v 0.392847 0.707107 0.587938
v 0.461940 0.555570 0.691342
v 0.513280 0.382683 0.768178
v 0.544895 0.195090 0.815493
v 0.555570 -0.000000 0.831469
v 0.544895 -0.195090 0.815493
v 0.513280 -0.382683 0.768178
v 0.461940 -0.555570 0.691342
v 0.392847 -0.707107 0.587938
v 0.308658 -0.831470 0.461940
v 0.212608 -0.923880 0.318190
v 0.108386 -0.980785 0.162212
v 0.074658 0.980785 0.180240
v 0.146447 0.923880 0.353554
v 0.212607 0.831470 0.513280
v 0.270598 0.707107 0.653281
v 0.318190 0.555570 0.768178
v 0.353553 0.382683 0.853553
v 0.375330 0.195090 0.906127
v 0.382683 -0.000000 0.923879
v 0.375330 -0.195090 0.906127
v 0.353553 -0.382683 0.853553
v 0.318190 -0.555570 0.768178
v 0.270598 -0.707107 0.653281
v 0.212607 -0.831470 0.513280
v 0.146447 -0.923880 0.353554
v 0.074658 -0.980785 0.180240
v 0.038060 0.980785 0.191342
v 0.074658 0.923880 0.375330
v 0.108386 0.831470 0.544895
v 0.137950 0.707107 0.693520
v 0.162212 0.555570 0.815493
v 0.180240 0.382683 0.906127
v 0.191342 0.195090 0.961939
v 0.195090 -0.000000 0.980785
v 0.191342 -0.195090 0.961939
v 0.180240 -0.382683 0.906127
v 0.162212 -0.555570 0.815493
v 0.137950 -0.707107 0.693520
v 0.108386 -0.831470 0.544895
v 0.074658 -0.923880 0.375330
v 0.038060 -0.980785 0.191342
v 0.000000 0.980785 0.195090
v -0.000000 0.923880 0.382684
v -0.000000 0.831470 0.555570
v 0.000000 0.707107 0.707107
v -0.000000 0.555570 0.831469
v 0.000000 0.382683 0.923879
v -0.000000 0.195090 0.980785
v -0.000000 -0.000000 0.999999
v -0.000000 -0.195090 0.980785
v -0.000000 -0.382683 0.923880
v -0.000000 -0.555570 0.831469
v 0.000000 -0.707107 0.707107
v -0.000000 -0.831470 0.555570
v 0.000000 -0.923880 0.382684
v -0.000000 -0.980785 0.195090
v -0.038060 0.980785 0.191342
v -0.074658 0.923880 0.375330
v -0.108386 0.831470 0.544895
v -0.137950 0.707107 0.693520
v -0.162212 0.555570 0.815493
v -0.180240 0.382683 0.906127
v -0.191342 0.195090 0.961939
v -0.195090 -0.000000 0.980785
v -0.191342 -0.195090 0.961939
v -0.180240 -0.382683 0.906127
v -0.162212 -0.555570 0.815493
v -0.137950 -0.707107 0.693520
v -0.108386 -0.831470 0.544895
v -0.074658 -0.923880 0.375330
v -0.038060 -0.980785 0.191342
v -0.074658 0.980785 0.180240
v -0.146447 0.923880 0.353553
v -0.212608 0.831470 0.513280
v -0.270598 0.707107 0.653281
v -0.318189 0.555570 0.768177
v -0.353553 0.382683 0.853553
v -0.375330 0.195090 0.906127
v -0.382683 -0.000000 0.923879
v -0.375330 -0.195090 0.906127
v -0.353553 -0.382683 0.853553
v -0.318190 -0.555570 0.768178
v -0.270598 -0.707107 0.653281
v -0.212608 -0.831470 0.513280
v -0.146447 -0.923880 0.353553
v -0.074658 -0.980785 0.180240
v -0.108386 0.980785 0.162212
v -0.212608 0.923880 0.318190
v -0.308658 0.831470 0.461940
v -0.392847 0.707107 0.587938
v -0.461940 0.555570 0.691341
v -0.513280 0.382683 0.768178
v -0.544895 0.195090 0.815493
v -0.555570 -0.000000 0.831469
v -0.544895 -0.195090 0.815493
v -0.513280 -0.382683 0.768178
v -0.461940 -0.555570 0.691342
v -0.392847 -0.707107 0.587938
v -0.308658 -0.831470 0.461940
v -0.212608 -0.923880 0.318190
v -0.108386 -0.980785 0.162212
v -0.137950 0.980785 0.137950
v -0.270598 0.923880 0.270598
v -0.392847 0.831470 0.392847
v -0.500000 0.707107 0.500000
v -0.587937 0.555570 0.587938
v -0.653281 0.382683 0.653281
v -0.693520 0.195090 0.693520
v -0.707106 -0.000000 0.707106
v -0.693520 -0.195090 0.693520
v -0.653281 -0.382683 0.653281
v -0.587938 -0.555570 0.587938
v -0.500000 -0.707107 0.500000
v -0.392847 -0.831470 0.392847
v -0.270598 -0.923880 0.270598
v -0.137950 -0.980785 0.137950
v -0.162212 0.980785 0.108386
v -0.318190 0.923880 0.212608
v -0.461940 0.831470 0.308658
v -0.587938 0.707107 0.392847
v -0.691341 0.555570 0.461940
v -0.768178 0.382683 0.513280
v -0.815493 0.195090 0.544895
v -0.831469 -0.000000 0.555569
v -0.815493 -0.195090 0.544895
v -0.768178 -0.382683 0.513280
v -0.691341 -0.555570 0.461940
v -0.587938 -0.707107 0.392847
v -0.461940 -0.831470 0.308658
v -0.318190 -0.923880 0.212608
v -0.162212 -0.980785 0.108386
v -0.000000 1.000000 0.000000
v -0.180240 0.980785 0.074658
v -0.353553 0.923880 0.146447
v -0.513280 0.831470 0.212607
v -0.653281 0.707107 0.270598
v -0.768177 0.555570 0.318190
v -0.853553 0.382683 0.353553
v -0.906127 0.195090 0.375330
v -0.923879 -0.000000 0.382683
v -0.906127 -0.195090 0.375330
v -0.853553 -0.382683 0.353553
v -0.768177 -0.555570 0.318190
v -0.653281 -0.707107 0.270598
v -0.513280 -0.831470 0.212607
v -0.353553 -0.923880 0.146447
v -0.180240 -0.980785 0.074658
v -0.191342 0.980785 0.038060
v -0.375330 0.923880 0.074658
v -0.544895 0.831470 0.108386
v -0.693520 0.707107 0.137950
v -0.815493 0.555570 0.162212
v -0.906127 0.382683 0.180240
v -0.961939 0.195090 0.191342
v -0.980784 -0.000000 0.195090
v -0.961939 -0.195090 0.191342
v -0.906127 -0.382683 0.180240
v -0.815493 -0.555570 0.162212
v -0.693520 -0.707107 0.137950
v -0.544895 -0.831470 0.108386
v -0.375330 -0.923880 0.074658
v -0.191342 -0.980785 0.038060
v -0.195090 0.980785 0.000000
v -0.382683 0.923880 0.000000
v -0.555570 0.831470 -0.000000
v -0.707107 0.707107 0.000000
v -0.831469 0.555570 0.000000
v -0.923879 0.382683 0.000000
v -0.980785 0.195090 -0.000000
v -0.999999 -0.000000 -0.000000
v -0.980785 -0.195090 -0.000000
v -0.923879 -0.382683 -0.000000
v -0.831469 -0.555570 0.000000
v -0.707107 -0.707107 0.000000
v -0.555570 -0.831470 -0.000000
v -0.382683 -0.923880 0.000000
v -0.195090 -0.980785 0.000000
v -0.191342 0.980785 -0.038060
v -0.375330 0.923880 -0.074658
v -0.544895 0.831470 -0.108386
v -0.693520 0.707107 -0.137950
v -0.815493 0.555570 -0.162212
v -0.906127 0.382683 -0.180240
v -0.961939 0.195090 -0.191342
v -0.980784 -0.000000 -0.195091
v -0.961939 -0.195090 -0.191342
v -0.906127 -0.382683 -0.180240
v -0.815493 -0.555570 -0.162212
v -0.693520 -0.707107 -0.137950
v -0.544895 -0.831470 -0.108386
v -0.375330 -0.923880 -0.074658
v -0.191342 -0.980785 -0.038060
v -0.180240 0.980785 -0.074658
v -0.353553 0.923880 -0.146447
v -0.513280 0.831470 -0.212607
v -0.653281 0.707107 -0.270598
v -0.768177 0.555570 -0.318189
v -0.853553 0.382683 -0.353553
v -0.906127 0.195090 -0.375330
v -0.923878 -0.000000 -0.382683
v -0.906127 -0.195090 -0.375330
v -0.853553 -0.382683 -0.353553
v -0.768177 -0.555570 -0.318189
v -0.653281 -0.707107 -0.270598
v -0.513280 -0.831470 -0.212607
v -0.353553 -0.923880 -0.146446
v -0.180240 -0.980785 -0.074658
v -0.162212 0.980785 -0.108386
v -0.318189 0.923880 -0.212607
v -0.461939 0.831470 -0.308658
v -0.587938 0.707107 -0.392847
v -0.691341 0.555570 -0.461939
v -0.768177 0.382683 -0.513280
v -0.815493 0.195090 -0.544895
v -0.831469 -0.000000 -0.555570
v -0.815493 -0.195090 -0.544895
v -0.768177 -0.382683 -0.513280
v -0.691341 -0.555570 -0.461939
v -0.587938 -0.707107 -0.392847
v -0.461939 -0.831470 -0.308658
v -0.318189 -0.923880 -0.212607
v -0.162212 -0.980785 -0.108386
v -0.137950 0.980785 -0.137950
v -0.270598 0.923880 -0.270598
v -0.392847 0.831470 -0.392847
v -0.500000 0.707107 -0.500000
v -0.587937 0.555570 -0.587937
v -0.653281 0.382683 -0.653281
v -0.693519 0.195090 -0.693520
v -0.707106 -0.000000 -0.707106
v -0.693519 -0.195090 -0.693520
v -0.653281 -0.382683 -0.653281
v -0.587937 -0.555570 -0.587937
v -0.500000 -0.707107 -0.500000
v -0.392847 -0.831470 -0.392847
v -0.270598 -0.923880 -0.270598
v -0.137950 -0.980785 -0.137950
v -0.108386 0.980785 -0.162212
v -0.212607 0.923880 -0.318189
v -0.308658 0.831470 -0.461939
v -0.392847 0.707107 -0.587937
v -0.461939 0.555570 -0.691341
v -0.513280 0.382683 -0.768177
v -0.544895 0.195090 -0.815493
v -0.555569 -0.000000 -0.831469
v -0.544895 -0.195090 -0.815493
v -0.513280 -0.382683 -0.768178
v -0.461939 -0.555570 -0.691341
v -0.392847 -0.707107 -0.587937
v -0.308658 -0.831470 -0.461939
v -0.212607 -0.923880 -0.318189
v -0.108386 -0.980785 -0.162212
v -0.074658 0.980785 -0.180240
v -0.146446 0.923880 -0.353553
v -0.212607 0.831470 -0.513279
v -0.270598 0.707107 -0.653281
v -0.318189 0.555570 -0.768177
v -0.353553 0.382683 -0.853553
v -0.375330 0.195090 -0.906127
v -0.382683 -0.000000 -0.923879
v -0.375330 -0.195090 -0.906127
v -0.353553 -0.382683 -0.853553
v -0.318189 -0.555570 -0.768177
v -0.270598 -0.707107 -0.653281
v -0.212607 -0.831470 -0.513279
v -0.146446 -0.923880 -0.353553
v -0.074658 -0.980785 -0.180240
v -0.038060 0.980785 -0.191342
v -0.074658 0.923880 -0.375330
v -0.108386 0.831470 -0.544895
v -0.137950 0.707107 -0.693520
v -0.162212 0.555570 -0.815493
v -0.180240 0.382683 -0.906127
v -0.191341 0.195090 -0.961939
v -0.195090 -0.000000 -0.980784
v -0.191341 -0.195090 -0.961939
v -0.180240 -0.382683 -0.906127
v -0.162212 -0.555570 -0.815493
v -0.137950 -0.707107 -0.693520
v -0.108386 -0.831470 -0.544895
v -0.074658 -0.923880 -0.375330
v -0.038060 -0.980785 -0.191342
v 0.000001 -0.000000 -0.999999
v 0.000000 -0.195090 -0.980785
v 0.000000 -0.382683 -0.923879
v 0.000000 -0.923880 -0.382683
v 0.000000 -0.980785 -0.195090
v 0.000000 -1.000000 0.000000
vt 0.750000 0.812500
vt 0.718750 0.750000
vt 0.750000 0.750000
vt 0.750000 0.250000
vt 0.718750 0.312500
vt 0.718750 0.250000
vt 0.718750 0.687500
vt 0.750000 0.687500
vt 0.718750 0.187500
vt 0.750000 0.187500
vt 0.718750 0.625000
vt 0.750000 0.625000
vt 0.718750 0.125000
vt 0.750000 0.125000
vt 0.718750 0.562500
vt 0.750000 0.562500
vt 0.718750 0.062500
vt 0.750000 0.062500
vt 0.750000 0.500000
vt 0.718750 0.500000
vt 0.750000 0.937500
vt 0.734375 1.000000
vt 0.718750 0.937500
vt 0.734375 0.000000
vt 0.718750 0.437500
vt 0.750000 0.437500
vt 0.718750 0.875000
vt 0.750000 0.875000
vt 0.718750 0.375000
vt 0.750000 0.375000
vt 0.718750 0.812500
vt 0.750000 0.312500
vt 0.687500 0.375000
vt 0.687500 0.812500
vt 0.687500 0.312500
vt 0.687500 0.750000
vt 0.687500 0.250000
vt 0.687500 0.687500
vt 0.687500 0.187500
vt 0.687500 0.625000
vt 0.687500 0.125000
vt 0.687500 0.562500
vt 0.687500 0.062500
vt 0.687500 0.500000
vt 0.703125 1.000000
vt 0.687500 0.937500
vt 0.703125 0.000000
vt 0.687500 0.437500
vt 0.687500 0.875000
vt 0.656250 0.125000
vt 0.656250 0.562500
vt 0.656250 0.062500
vt 0.656250 0.500000
vt 0.671875 1.000000
vt 0.656250 0.937500
vt 0.671875 0.000000
vt 0.656250 0.437500
vt 0.656250 0.875000
vt 0.656250 0.375000
vt 0.656250 0.812500
vt 0.656250 0.312500
vt 0.656250 0.750000
vt 0.656250 0.250000
vt 0.656250 0.687500
vt 0.656250 0.187500
vt 0.656250 0.625000
vt 0.625000 0.375000
vt 0.625000 0.312500
vt 0.625000 0.750000
vt 0.625000 0.250000
vt 0.625000 0.687500
vt 0.625000 0.187500
vt 0.625000 0.625000
vt 0.625000 0.125000
vt 0.625000 0.562500
vt 0.625000 0.062500
vt 0.625000 0.500000
vt 0.640625 1.000000
vt 0.625000 0.937500
vt 0.640625 0.000000
vt 0.625000 0.437500
vt 0.625000 0.875000
vt 0.625000 0.812500
vt 0.593750 0.062500
vt 0.593750 0.562500
vt 0.593750 0.500000
vt 0.609375 1.000000
vt 0.593750 0.937500
vt 0.609375 0.000000
vt 0.593750 0.437500
vt 0.593750 0.875000
vt 0.593750 0.375000
vt 0.593750 0.812500
vt 0.593750 0.312500
vt 0.593750 0.750000
vt 0.593750 0.250000
vt 0.593750 0.687500
vt 0.593750 0.187500
vt 0.593750 0.625000
vt 0.593750 0.125000
vt 0.562500 0.750000
vt 0.562500 0.250000
vt 0.562500 0.687500
vt 0.562500 0.187500
vt 0.562500 0.625000
vt 0.562500 0.125000
vt 0.562500 0.562500
vt 0.562500 0.062500
vt 0.562500 0.500000
vt 0.578125 1.000000
vt 0.562500 0.937500
vt 0.578125 0.000000
vt 0.562500 0.437500
vt 0.562500 0.875000
vt 0.562500 0.375000
vt 0.562500 0.812500
vt 0.562500 0.312500
vt 0.531250 0.562500
vt 0.531250 0.500000
vt 0.546875 1.000000
vt 0.531250 0.937500
vt 0.546875 0.000000
vt 0.531250 0.062500
vt 0.531250 0.437500
vt 0.531250 0.875000
vt 0.531250 0.375000
vt 0.531250 0.812500
vt 0.531250 0.312500
vt 0.531250 0.750000
vt 0.531250 0.250000
vt 0.531250 0.687500
vt 0.531250 0.187500
vt 0.531250 0.625000
vt 0.531250 0.125000
vt 0.500000 0.250000
vt 0.500000 0.750000
vt 0.500000 0.687500
vt 0.500000 0.187500
vt 0.500000 0.625000
vt 0.500000 0.125000
vt 0.500000 0.562500
vt 0.500000 0.062500
vt 0.500000 0.500000
vt 0.515625 1.000000
vt 0.500000 0.937500
vt 0.515625 0.000000
vt 0.500000 0.437500
vt 0.500000 0.875000
vt 0.500000 0.375000
vt 0.500000 0.812500
vt 0.500000 0.312500
vt 0.484375 1.000000
vt 0.468750 0.937500
vt 0.484375 0.000000
vt 0.468750 0.062500
vt 0.468750 0.437500
vt 0.468750 0.875000
vt 0.468750 0.375000
vt 0.468750 0.812500
vt 0.468750 0.312500
vt 0.468750 0.750000
vt 0.468750 0.250000
vt 0.468750 0.687500
vt 0.468750 0.187500
vt 0.468750 0.625000
vt 0.468750 0.125000
vt 0.468750 0.562500
vt 0.468750 0.500000
vt 0.437500 0.687500
vt 0.437500 0.250000
vt 0.437500 0.187500
vt 0.437500 0.625000
vt 0.437500 0.125000
vt 0.437500 0.562500
vt 0.437500 0.062500
vt 0.437500 0.500000
vt 0.453125 1.000000
vt 0.437500 0.937500
vt 0.453125 0.000000
vt 0.437500 0.437500
vt 0.437500 0.875000
vt 0.437500 0.375000
vt 0.437500 0.812500
vt 0.437500 0.312500
vt 0.437500 0.750000
vt 0.406250 0.437500
vt 0.406250 0.937500
vt 0.406250 0.875000
vt 0.406250 0.375000
vt 0.406250 0.812500
vt 0.406250 0.312500
vt 0.406250 0.750000
vt 0.406250 0.250000
vt 0.406250 0.687500
vt 0.406250 0.187500
vt 0.406250 0.625000
vt 0.406250 0.125000
vt 0.406250 0.562500
vt 0.406250 0.062500
vt 0.406250 0.500000
vt 0.421875 1.000000
vt 0.421875 0.000000
vt 0.375000 0.187500
vt 0.375000 0.625000
vt 0.375000 0.125000
vt 0.375000 0.562500
vt 0.375000 0.062500
vt 0.375000 0.500000
vt 0.390625 1.000000
vt 0.375000 0.937500
vt 0.390625 0.000000
vt 0.375000 0.437500
vt 0.375000 0.875000
vt 0.375000 0.375000
vt 0.375000 0.812500
vt 0.375000 0.312500
vt 0.375000 0.750000
vt 0.375000 0.250000
vt 0.375000 0.687500
vt 0.343750 0.375000
vt 0.343750 0.812500
vt 0.343750 0.312500
vt 0.343750 0.750000
vt 0.343750 0.250000
vt 0.343750 0.687500
vt 0.343750 0.187500
vt 0.343750 0.625000
vt 0.343750 0.125000
vt 0.343750 0.562500
vt 0.343750 0.062500
vt 0.343750 0.500000
vt 0.359375 1.000000
vt 0.343750 0.937500
vt 0.359375 0.000000
vt 0.343750 0.437500
vt 0.343750 0.875000
vt 0.312500 0.125000
vt 0.312500 0.625000
vt 0.312500 0.562500
vt 0.312500 0.062500
vt 0.312500 0.500000
vt 0.328125 1.000000
vt 0.312500 0.937500
vt 0.328125 0.000000
vt 0.312500 0.437500
vt 0.312500 0.875000
vt 0.312500 0.375000
vt 0.312500 0.812500
vt 0.312500 0.312500
vt 0.312500 0.750000
vt 0.312500 0.250000
vt 0.312500 0.687500
vt 0.312500 0.187500
vt 0.281250 0.875000
vt 0.281250 0.812500
vt 0.281250 0.312500
vt 0.281250 0.750000
vt 0.281250 0.250000
vt 0.281250 0.687500
vt 0.281250 0.187500
vt 0.281250 0.625000
vt 0.281250 0.125000
vt 0.281250 0.562500
vt 0.281250 0.062500
vt 0.281250 0.500000
vt 0.296875 1.000000
vt 0.281250 0.937500
vt 0.296875 0.000000
vt 0.281250 0.437500
vt 0.281250 0.375000
vt 0.250000 0.625000
vt 0.250000 0.562500
vt 0.250000 0.125000
vt 0.250000 0.062500
vt 0.250000 0.500000
vt 0.265625 1.000000
vt 0.250000 0.937500
vt 0.265625 0.000000
vt 0.250000 0.437500
vt 0.250000 0.875000
vt 0.250000 0.375000
vt 0.250000 0.812500
vt 0.250000 0.312500
vt 0.250000 0.750000
vt 0.250000 0.250000
vt 0.250000 0.687500
vt 0.250000 0.187500
vt 0.218750 0.312500
vt 0.218750 0.750000
vt 0.218750 0.250000
vt 0.218750 0.687500
vt 0.218750 0.187500
vt 0.218750 0.625000
vt 0.218750 0.125000
vt 0.218750 0.562500
vt 0.218750 0.062500
vt 0.218750 0.500000
vt 0.234375 1.000000
vt 0.218750 0.937500
vt 0.234375 0.000000
vt 0.218750 0.437500
vt 0.218750 0.875000
vt 0.218750 0.375000
vt 0.218750 0.812500
vt 0.187500 0.062500
vt 0.187500 0.562500
vt 0.187500 0.500000
vt 0.203125 1.000000
vt 0.187500 0.937500
vt 0.203125 0.000000
vt 0.187500 0.437500
vt 0.187500 0.875000
vt 0.187500 0.375000
vt 0.187500 0.812500
vt 0.187500 0.312500
vt 0.187500 0.750000
vt 0.187500 0.250000
vt 0.187500 0.687500
vt 0.187500 0.187500
vt 0.187500 0.625000
vt 0.187500 0.125000
vt 0.156250 0.750000
vt 0.156250 0.250000
vt 0.156250 0.687500
vt 0.156250 0.187500
vt 0.156250 0.625000
vt 0.156250 0.125000
vt 0.156250 0.562500
vt 0.156250 0.062500
vt 0.156250 0.500000
vt 0.171875 1.000000
vt 0.156250 0.937500
vt 0.171875 0.000000
vt 0.156250 0.437500
vt 0.156250 0.875000
vt 0.156250 0.375000
vt 0.156250 0.812500
vt 0.156250 0.312500
vt 0.125000 0.562500
vt 0.125000 0.500000
vt 0.140625 1.000000
vt 0.125000 0.937500
vt 0.140625 0.000000
vt 0.125000 0.062500
vt 0.125000 0.437500
vt 0.125000 0.875000
vt 0.125000 0.375000
vt 0.125000 0.812500
vt 0.125000 0.312500
vt 0.125000 0.750000
vt 0.125000 0.250000
vt 0.125000 0.687500
vt 0.125000 0.187500
vt 0.125000 0.625000
vt 0.125000 0.125000
vt 0.093750 0.250000
vt 0.093750 0.687500
vt 0.093750 0.187500
vt 0.093750 0.625000
vt 0.093750 0.125000
vt 0.093750 0.562500
vt 0.093750 0.062500
vt 0.093750 0.500000
vt 0.109375 1.000000
vt 0.093750 0.937500
vt 0.109375 0.000000
vt 0.093750 0.437500
vt 0.093750 0.875000
vt 0.093750 0.375000
vt 0.093750 0.812500
vt 0.093750 0.312500
vt 0.093750 0.750000
vt 0.078125 0.000000
vt 0.062500 0.062500
vt 0.062500 0.437500
vt 0.062500 0.875000
vt 0.062500 0.375000
vt 0.062500 0.812500
vt 0.062500 0.312500
vt 0.062500 0.750000
vt 0.062500 0.250000
vt 0.062500 0.687500
vt 0.062500 0.187500
vt 0.062500 0.625000
vt 0.062500 0.125000
vt 0.062500 0.562500
vt 0.062500 0.500000
vt 0.078125 1.000000
vt 0.062500 0.937500
vt 0.031250 0.187500
vt 0.031250 0.687500
vt 0.031250 0.625000
vt 0.031250 0.125000
vt 0.031250 0.562500
vt 0.031250 0.062500
vt 0.031250 0.500000
vt 0.046875 1.000000
vt 0.031250 0.937500
vt 0.046875 0.000000
vt 0.031250 0.437500
vt 0.031250 0.875000
vt 0.031250 0.375000
vt 0.031250 0.812500
vt 0.031250 0.312500
vt 0.031250 0.750000
vt 0.031250 0.250000
vt 0.000000 0.875000
vt 0.000000 0.437500
vt 0.000000 0.375000
vt 0.000000 0.812500
vt 0.000000 0.312500
vt 0.000000 0.750000
vt 0.000000 0.250000
vt 0.000000 0.687500
vt 0.000000 0.187500
vt 0.000000 0.625000
vt 0.000000 0.125000
vt 0.000000 0.562500
vt 0.000000 0.062500
vt 0.000000 0.500000
vt 0.015625 1.000000
vt 0.000000 0.937500
vt 0.015625 0.000000
vt 1.000000 0.625000
vt 0.968750 0.687500
vt 0.968750 0.625000
vt 1.000000 0.125000
vt 0.968750 0.187500
vt 0.968750 0.125000
vt 1.000000 0.562500
vt 0.968750 0.562500
vt 1.000000 0.062500
vt 0.968750 0.062500
vt 1.000000 0.500000
vt 0.968750 0.500000
vt 1.000000 0.937500
vt 0.984375 1.000000
vt 0.968750 0.937500
vt 0.984375 0.000000
vt 0.968750 0.437500
vt 1.000000 0.437500
vt 0.968750 0.875000
vt 1.000000 0.875000
vt 1.000000 0.375000
vt 0.968750 0.375000
vt 0.968750 0.812500
vt 1.000000 0.812500
vt 0.968750 0.312500
vt 1.000000 0.312500
vt 0.968750 0.750000
vt 1.000000 0.750000
vt 1.000000 0.250000
vt 0.968750 0.250000
vt 1.000000 0.687500
vt 1.000000 0.187500
vt 0.937500 0.437500
vt 0.937500 0.375000
vt 0.937500 0.812500
vt 0.937500 0.312500
vt 0.937500 0.750000
vt 0.937500 0.250000
vt 0.937500 0.687500
vt 0.937500 0.187500
vt 0.937500 0.625000
vt 0.937500 0.125000
vt 0.937500 0.562500
vt 0.937500 0.062500
vt 0.937500 0.500000
vt 0.953125 1.000000
vt 0.937500 0.937500
vt 0.953125 0.000000
vt 0.937500 0.875000
vt 0.906250 0.187500
vt 0.906250 0.125000
vt 0.906250 0.625000
vt 0.906250 0.562500
vt 0.906250 0.062500
vt 0.906250 0.500000
vt 0.921875 1.000000
vt 0.906250 0.937500
vt 0.921875 0.000000
vt 0.906250 0.437500
vt 0.906250 0.875000
vt 0.906250 0.375000
vt 0.906250 0.812500
vt 0.906250 0.312500
vt 0.906250 0.750000
vt 0.906250 0.250000
vt 0.906250 0.687500
vt 0.875000 0.812500
vt 0.875000 0.312500
vt 0.875000 0.750000
vt 0.875000 0.250000
vt 0.875000 0.687500
vt 0.875000 0.187500
vt 0.875000 0.625000
vt 0.875000 0.125000
vt 0.875000 0.562500
vt 0.875000 0.062500
vt 0.875000 0.500000
vt 0.890625 1.000000
vt 0.875000 0.937500
vt 0.890625 0.000000
vt 0.875000 0.437500
vt 0.875000 0.875000
vt 0.875000 0.375000
vt 0.843750 0.625000
vt 0.843750 0.562500
vt 0.843750 0.125000
vt 0.843750 0.062500
vt 0.843750 0.500000
vt 0.859375 1.000000
vt 0.843750 0.937500
vt 0.859375 0.000000
vt 0.843750 0.437500
vt 0.843750 0.875000
vt 0.843750 0.375000
vt 0.843750 0.812500
vt 0.843750 0.312500
vt 0.843750 0.750000
vt 0.843750 0.250000
vt 0.843750 0.687500
vt 0.843750 0.187500
vt 0.812500 0.312500
vt 0.812500 0.750000
vt 0.812500 0.250000
vt 0.812500 0.687500
vt 0.812500 0.187500
vt 0.812500 0.625000
vt 0.812500 0.125000
vt 0.812500 0.562500
vt 0.812500 0.062500
vt 0.812500 0.500000
vt 0.828125 1.000000
vt 0.812500 0.937500
vt 0.828125 0.000000
vt 0.812500 0.437500
vt 0.812500 0.875000
vt 0.812500 0.375000
vt 0.812500 0.812500
vt 0.781250 0.062500
vt 0.781250 0.562500
vt 0.781250 0.500000
vt 0.796875 1.000000
vt 0.781250 0.937500
vt 0.796875 0.000000
vt 0.781250 0.437500
vt 0.781250 0.875000
vt 0.781250 0.375000
vt 0.781250 0.812500
vt 0.781250 0.312500
vt 0.781250 0.750000
vt 0.781250 0.250000
vt 0.781250 0.687500
vt 0.781250 0.187500
vt 0.781250 0.625000
vt 0.781250 0.125000
vt 0.765625 1.000000
vt 0.765625 0.000000
vn 0.0587 0.8299 -0.5548
vn 0.0758 0.7058 -0.7044
vn -0.0000 0.7476 -0.6642
vn 0.0000 -0.6578 -0.7532
vn 0.1550 -0.6076 -0.7790
vn 0.0758 -0.7058 -0.7044
vn 0.0959 0.5546 -0.8266
vn -0.0000 0.6076 -0.7942
vn 0.0507 -0.8299 -0.5556
vn -0.0000 -0.7942 -0.6076
vn 0.1106 0.3820 -0.9175
vn -0.0000 0.4449 -0.8956
vn 0.0210 -0.9222 -0.3860
vn -0.0000 -0.8990 -0.4380
vn 0.1195 0.1948 -0.9735
vn -0.0000 0.2648 -0.9643
vn -0.0128 -0.9793 -0.2022
vn -0.0000 -0.9678 -0.2519
vn 0.0000 0.0735 -0.9973
vn 0.1226 -0.0000 -0.9925
vn -0.0000 0.9888 -0.1495
vn 0.0102 0.9986 -0.0514
vn -0.0128 0.9793 -0.2022
vn 0.0000 -0.9986 -0.0524
vn 0.1195 -0.1948 -0.9735
vn -0.0000 -0.1220 -0.9925
vn 0.0210 0.9222 -0.3860
vn -0.0000 0.9416 -0.3367
vn 0.1106 -0.3820 -0.9175
vn -0.0000 -0.3143 -0.9493
vn 0.1185 0.7942 -0.5959
vn 0.0672 -0.5546 -0.8294
vn 0.2874 -0.3820 -0.8783
vn 0.1581 0.8299 -0.5351
vn 0.2553 -0.5546 -0.7920
vn 0.2118 0.7058 -0.6761
vn 0.2118 -0.7058 -0.6761
vn 0.2553 0.5546 -0.7920
vn 0.1581 -0.8299 -0.5351
vn 0.2874 0.3820 -0.8783
vn 0.0959 -0.9222 -0.3745
vn 0.3071 0.1948 -0.9315
vn 0.0269 -0.9793 -0.2008
vn 0.3138 -0.0000 -0.9495
vn 0.0269 0.9793 -0.2008
vn 0.3690 -0.2648 -0.8909
vn 0.1676 0.8990 -0.4046
vn 0.1671 -0.9222 -0.3486
vn 0.4830 0.1948 -0.8537
vn 0.0655 -0.9793 -0.1917
vn 0.4930 -0.0000 -0.8700
vn 0.0655 0.9793 -0.1917
vn 0.4830 -0.1948 -0.8537
vn 0.1671 0.9222 -0.3486
vn 0.4532 -0.3820 -0.8054
vn 0.2595 0.8299 -0.4939
vn 0.4049 -0.5546 -0.7270
vn 0.3396 0.7058 -0.6218
vn 0.3396 -0.7058 -0.6218
vn 0.4049 0.5546 -0.7270
vn 0.2833 -0.8602 -0.4241
vn 0.5274 0.3143 -0.7893
vn 0.6333 -0.4449 -0.6333
vn 0.5390 -0.5546 -0.6340
vn 0.4543 0.7058 -0.5436
vn 0.4543 -0.7058 -0.5436
vn 0.5390 0.5546 -0.6340
vn 0.3508 -0.8299 -0.4338
vn 0.6017 0.3820 -0.7015
vn 0.2319 -0.9222 -0.3093
vn 0.6402 0.1948 -0.7431
vn 0.1017 -0.9793 -0.1752
vn 0.6533 -0.0000 -0.7571
vn 0.1017 0.9793 -0.1752
vn 0.6402 -0.1948 -0.7431
vn 0.2319 0.9222 -0.3093
vn 0.4296 0.7942 -0.4296
vn 0.1339 -0.9793 -0.1520
vn 0.8253 0.1220 -0.5514
vn 0.7884 -0.0000 -0.6151
vn 0.1339 0.9793 -0.1520
vn 0.7729 -0.1948 -0.6039
vn 0.2878 0.9222 -0.2581
vn 0.7269 -0.3820 -0.5706
vn 0.4287 0.8299 -0.3571
vn 0.6523 -0.5546 -0.5167
vn 0.5517 0.7058 -0.4445
vn 0.5517 -0.7058 -0.4445
vn 0.6523 0.5546 -0.5167
vn 0.4287 -0.8299 -0.3571
vn 0.7269 0.3820 -0.5706
vn 0.2799 -0.9416 -0.1870
vn 0.6278 0.7058 -0.3283
vn 0.6278 -0.7058 -0.3283
vn 0.7406 0.5546 -0.3795
vn 0.4901 -0.8299 -0.2666
vn 0.8243 0.3820 -0.4178
vn 0.3327 -0.9222 -0.1970
vn 0.8759 0.1948 -0.4415
vn 0.1610 -0.9793 -0.1230
vn 0.8933 -0.0000 -0.4495
vn 0.1610 0.9793 -0.1230
vn 0.8759 -0.1948 -0.4415
vn 0.3326 0.9222 -0.1970
vn 0.8243 -0.3820 -0.4178
vn 0.5614 0.7942 -0.2325
vn 0.7338 -0.6076 -0.3039
vn 0.9735 0.1221 -0.1936
vn 0.9638 -0.0000 -0.2666
vn 0.1819 0.9793 -0.0892
vn 0.1466 -0.9888 -0.0292
vn 0.9452 -0.1948 -0.2622
vn 0.3647 0.9222 -0.1283
vn 0.8900 -0.3820 -0.2490
vn 0.5327 0.8299 -0.1658
vn 0.8004 -0.5546 -0.2277
vn 0.6798 0.7058 -0.1995
vn 0.6798 -0.7058 -0.1995
vn 0.8004 0.5546 -0.2277
vn 0.5327 -0.8299 -0.1658
vn 0.8900 0.3820 -0.2490
vn 0.3647 -0.9222 -0.1283
vn 0.7056 -0.7058 -0.0631
vn 0.7532 0.6577 0.0000
vn 0.8294 0.5546 -0.0672
vn 0.5548 -0.8299 -0.0587
vn 0.9215 0.3820 -0.0706
vn 0.3827 -0.9222 -0.0547
vn 0.9781 0.1948 -0.0727
vn 0.1958 -0.9793 -0.0520
vn 0.9973 -0.0000 -0.0734
vn 0.1958 0.9793 -0.0519
vn 0.9781 -0.1948 -0.0727
vn 0.3827 0.9222 -0.0547
vn 0.9215 -0.3820 -0.0706
vn 0.5548 0.8299 -0.0587
vn 0.7942 -0.6076 -0.0000
vn 0.2022 0.9793 -0.0128
vn 0.1466 -0.9888 0.0292
vn 0.9735 -0.1948 0.1195
vn 0.3860 0.9222 0.0210
vn 0.9175 -0.3820 0.1106
vn 0.5556 0.8299 0.0507
vn 0.8266 -0.5546 0.0959
vn 0.7044 0.7058 0.0758
vn 0.7044 -0.7058 0.0758
vn 0.8266 0.5546 0.0959
vn 0.5556 -0.8299 0.0507
vn 0.9175 0.3820 0.1106
vn 0.3860 -0.9222 0.0210
vn 0.9735 0.1948 0.1195
vn 0.9781 -0.0734 0.1946
vn 0.7920 0.5546 0.2553
vn 0.6136 -0.7476 0.2542
vn 0.5351 -0.8299 0.1581
vn 0.8783 0.3820 0.2874
vn 0.3745 -0.9222 0.0959
vn 0.9315 0.1948 0.3071
vn 0.2008 -0.9793 0.0269
vn 0.9495 -0.0000 0.3138
vn 0.2008 0.9793 0.0269
vn 0.9315 -0.1948 0.3071
vn 0.3745 0.9222 0.0959
vn 0.8783 -0.3820 0.2874
vn 0.5351 0.8299 0.1581
vn 0.7920 -0.5546 0.2553
vn 0.6959 0.6577 0.2883
vn 0.8537 -0.1948 0.4829
vn 0.2094 0.9678 0.1399
vn 0.3486 0.9222 0.1671
vn 0.8054 -0.3820 0.4532
vn 0.4939 0.8299 0.2594
vn 0.7270 -0.5546 0.4049
vn 0.6218 0.7058 0.3396
vn 0.6218 -0.7058 0.3396
vn 0.7270 0.5546 0.4049
vn 0.4939 -0.8299 0.2594
vn 0.8054 0.3820 0.4532
vn 0.3486 -0.9222 0.1671
vn 0.8537 0.1948 0.4830
vn 0.1917 -0.9793 0.0655
vn 0.8292 -0.0734 0.5541
vn 0.4338 -0.8299 0.3508
vn 0.7015 0.3820 0.6016
vn 0.3093 -0.9222 0.2319
vn 0.7431 0.1948 0.6402
vn 0.1752 -0.9793 0.1017
vn 0.7571 -0.0000 0.6533
vn 0.1752 0.9793 0.1017
vn 0.7431 -0.1948 0.6402
vn 0.3093 0.9222 0.2319
vn 0.7015 -0.3820 0.6017
vn 0.4338 0.8299 0.3508
vn 0.6340 -0.5546 0.5390
vn 0.5436 0.7058 0.4544
vn 0.4697 -0.7476 0.4697
vn 0.6142 0.4954 0.6142
vn 0.5706 -0.3820 0.7269
vn 0.3571 0.8299 0.4287
vn 0.5167 -0.5546 0.6523
vn 0.4445 0.7058 0.5517
vn 0.4445 -0.7058 0.5517
vn 0.5167 0.5546 0.6523
vn 0.3570 -0.8299 0.4287
vn 0.5706 0.3820 0.7270
vn 0.2581 -0.9222 0.2878
vn 0.6039 0.1948 0.7729
vn 0.1520 -0.9793 0.1339
vn 0.6151 -0.0000 0.7884
vn 0.1520 0.9793 0.1339
vn 0.5357 -0.2648 0.8018
vn 0.2433 0.8990 0.3641
vn 0.1970 -0.9222 0.3326
vn 0.3633 0.3143 0.8771
vn 0.4415 0.1948 0.8759
vn 0.1230 -0.9793 0.1610
vn 0.4495 -0.0000 0.8933
vn 0.1229 0.9793 0.1610
vn 0.4415 -0.1948 0.8759
vn 0.1970 0.9222 0.3326
vn 0.4178 -0.3820 0.8243
vn 0.2665 0.8299 0.4901
vn 0.3795 -0.5546 0.7406
vn 0.3283 0.7058 0.6278
vn 0.3283 -0.7058 0.6278
vn 0.3795 0.5546 0.7406
vn 0.1952 -0.8602 0.4712
vn 0.0854 0.8990 0.4295
vn 0.1658 0.8299 0.5327
vn 0.2277 -0.5546 0.8004
vn 0.1995 0.7058 0.6798
vn 0.1995 -0.7058 0.6798
vn 0.2277 0.5546 0.8004
vn 0.1658 -0.8299 0.5327
vn 0.2490 0.3820 0.8900
vn 0.1283 -0.9222 0.3647
vn 0.2622 0.1948 0.9452
vn 0.0892 -0.9793 0.1819
vn 0.2666 -0.0000 0.9638
vn 0.0891 0.9793 0.1819
vn 0.2622 -0.1948 0.9452
vn 0.1747 -0.4449 0.8784
vn -0.0000 0.3143 0.9493
vn 0.0727 0.1948 0.9781
vn -0.0000 -0.9416 0.3367
vn 0.0520 -0.9793 0.1958
vn 0.0734 -0.0000 0.9973
vn 0.0520 0.9793 0.1958
vn 0.0727 -0.1948 0.9781
vn 0.0547 0.9222 0.3827
vn 0.0706 -0.3820 0.9215
vn 0.0587 0.8299 0.5548
vn 0.0672 -0.5546 0.8294
vn 0.0631 0.7058 0.7056
vn 0.0631 -0.7058 0.7056
vn 0.0672 0.5546 0.8294
vn 0.0587 -0.8299 0.5548
vn -0.0959 -0.5546 0.8266
vn -0.0758 0.7058 0.7044
vn -0.0758 -0.7058 0.7044
vn -0.0959 0.5546 0.8266
vn -0.0507 -0.8299 0.5556
vn -0.1106 0.3820 0.9175
vn -0.0210 -0.9222 0.3860
vn -0.1195 0.1948 0.9735
vn 0.0128 -0.9793 0.2022
vn -0.1225 -0.0000 0.9925
vn 0.0128 0.9793 0.2022
vn -0.1195 -0.1948 0.9735
vn -0.0210 0.9222 0.3860
vn -0.1747 -0.4449 0.8784
vn -0.1185 0.7942 0.5959
vn -0.0269 -0.9793 0.2008
vn -0.3798 0.1220 0.9170
vn -0.3138 -0.0000 0.9495
vn -0.0269 0.9793 0.2008
vn -0.3071 -0.1948 0.9315
vn -0.0959 0.9222 0.3745
vn -0.2874 -0.3820 0.8783
vn -0.1581 0.8299 0.5351
vn -0.2553 -0.5546 0.7920
vn -0.2118 0.7058 0.6761
vn -0.2118 -0.7058 0.6761
vn -0.2553 0.5546 0.7920
vn -0.1581 -0.8299 0.5351
vn -0.2874 0.3820 0.8783
vn -0.1288 -0.9416 0.3110
vn -0.3396 0.7058 0.6218
vn -0.3396 -0.7058 0.6218
vn -0.4049 0.5546 0.7270
vn -0.2594 -0.8299 0.4939
vn -0.4533 0.3820 0.8054
vn -0.1671 -0.9222 0.3486
vn -0.4830 0.1948 0.8537
vn -0.0655 -0.9793 0.1917
vn -0.4930 -0.0000 0.8700
vn -0.0655 0.9793 0.1917
vn -0.4830 -0.1948 0.8537
vn -0.1671 0.9222 0.3486
vn -0.4533 -0.3820 0.8053
vn -0.3376 0.7942 0.5052
vn -0.4413 -0.6076 0.6604
vn -0.7018 0.1220 0.7018
vn -0.6533 -0.0000 0.7571
vn -0.1017 0.9793 0.1752
vn -0.1057 -0.9888 0.1057
vn -0.6402 -0.1948 0.7431
vn -0.2319 0.9222 0.3093
vn -0.6017 -0.3820 0.7015
vn -0.3508 0.8299 0.4338
vn -0.5390 -0.5546 0.6340
vn -0.4544 0.7058 0.5436
vn -0.4544 -0.7058 0.5436
vn -0.5390 0.5546 0.6340
vn -0.3508 -0.8299 0.4338
vn -0.6017 0.3820 0.7015
vn -0.2319 -0.9222 0.3093
vn -0.5517 -0.7058 0.4445
vn -0.6523 0.5546 0.5167
vn -0.4287 -0.8299 0.3570
vn -0.7270 0.3820 0.5706
vn -0.2878 -0.9222 0.2581
vn -0.7729 0.1948 0.6039
vn -0.1339 -0.9793 0.1520
vn -0.7884 -0.0000 0.6151
vn -0.1339 0.9793 0.1520
vn -0.7729 -0.1948 0.6039
vn -0.2878 0.9222 0.2581
vn -0.7270 -0.3820 0.5706
vn -0.4287 0.8299 0.3571
vn -0.6604 -0.6076 0.4413
vn -0.6263 0.6577 0.4185
vn -0.1381 -0.9888 0.0572
vn -0.8759 -0.1948 0.4415
vn -0.3326 0.9222 0.1970
vn -0.8243 -0.3820 0.4178
vn -0.4901 0.8299 0.2666
vn -0.7406 -0.5546 0.3795
vn -0.6278 0.7058 0.3283
vn -0.6278 -0.7058 0.3283
vn -0.7406 0.5546 0.3795
vn -0.4901 -0.8299 0.2666
vn -0.8243 0.3820 0.4178
vn -0.3327 -0.9222 0.1970
vn -0.8759 0.1948 0.4415
vn -0.9214 -0.0734 0.3816
vn -0.2327 0.9678 0.0964
vn -0.5327 -0.8299 0.1658
vn -0.8520 0.4954 0.1695
vn -0.8900 0.3820 0.2490
vn -0.3647 -0.9222 0.1283
vn -0.9452 0.1948 0.2622
vn -0.1819 -0.9793 0.0892
vn -0.9638 -0.0000 0.2666
vn -0.1819 0.9793 0.0892
vn -0.9452 -0.1948 0.2622
vn -0.3647 0.9222 0.1283
vn -0.8900 -0.3820 0.2490
vn -0.5327 0.8299 0.1658
vn -0.8004 -0.5546 0.2277
vn -0.6798 0.7058 0.1996
vn -0.6515 -0.7475 0.1296
vn -0.3827 0.9222 0.0547
vn -0.9643 -0.2648 -0.0000
vn -0.9215 -0.3820 0.0706
vn -0.5548 0.8299 0.0587
vn -0.8294 -0.5546 0.0672
vn -0.7056 0.7058 0.0631
vn -0.7056 -0.7058 0.0631
vn -0.8294 0.5546 0.0672
vn -0.5548 -0.8299 0.0587
vn -0.9215 0.3820 0.0706
vn -0.3827 -0.9222 0.0547
vn -0.9781 0.1948 0.0727
vn -0.1958 -0.9793 0.0520
vn -0.9973 -0.0000 0.0735
vn -0.2519 0.9678 0.0000
vn -0.8520 0.4954 -0.1695
vn -0.9175 0.3820 -0.1106
vn -0.5002 -0.8602 -0.0995
vn -0.3860 -0.9222 -0.0210
vn -0.9735 0.1948 -0.1195
vn -0.2022 -0.9793 0.0128
vn -0.9925 -0.0000 -0.1225
vn -0.2022 0.9793 0.0128
vn -0.9735 -0.1948 -0.1195
vn -0.3860 0.9222 -0.0210
vn -0.9175 -0.3820 -0.1106
vn -0.5556 0.8299 -0.0507
vn -0.8266 -0.5546 -0.0959
vn -0.7044 0.7058 -0.0758
vn -0.7044 -0.7058 -0.0758
vn -0.8909 -0.2648 -0.3690
vn -0.8783 -0.3820 -0.2874
vn -0.5351 0.8299 -0.1581
vn -0.7920 -0.5546 -0.2553
vn -0.6761 0.7058 -0.2117
vn -0.6761 -0.7058 -0.2118
vn -0.7920 0.5546 -0.2553
vn -0.5351 -0.8299 -0.1581
vn -0.8783 0.3820 -0.2875
vn -0.3745 -0.9222 -0.0959
vn -0.9315 0.1948 -0.3071
vn -0.2008 -0.9793 -0.0269
vn -0.9495 -0.0000 -0.3138
vn -0.2008 0.9793 -0.0269
vn -0.4046 0.8990 -0.1676
vn -0.4241 -0.8602 -0.2833
vn -0.3486 -0.9222 -0.1671
vn -0.7893 0.3143 -0.5274
vn -0.8537 0.1948 -0.4830
vn -0.1917 -0.9793 -0.0655
vn -0.8700 -0.0000 -0.4930
vn -0.1917 0.9793 -0.0655
vn -0.8537 -0.1948 -0.4829
vn -0.3486 0.9222 -0.1671
vn -0.8054 -0.3820 -0.4532
vn -0.4939 0.8299 -0.2594
vn -0.7270 -0.5546 -0.4049
vn -0.6218 0.7058 -0.3396
vn -0.6218 -0.7058 -0.3396
vn -0.7270 0.5546 -0.4049
vn -0.4338 0.8299 -0.3508
vn -0.6340 -0.5546 -0.5390
vn -0.5436 0.7058 -0.4544
vn -0.5436 -0.7058 -0.4544
vn -0.6340 0.5546 -0.5390
vn -0.4338 -0.8299 -0.3508
vn -0.7015 0.3820 -0.6017
vn -0.3093 -0.9222 -0.2319
vn -0.7431 0.1948 -0.6402
vn -0.1752 -0.9793 -0.1017
vn -0.7571 -0.0000 -0.6533
vn -0.1752 0.9793 -0.1017
vn -0.7431 -0.1948 -0.6402
vn -0.3097 0.8990 -0.3097
vn -0.6333 -0.4449 -0.6333
vn -0.5274 0.3143 -0.7893
vn -0.6039 0.1948 -0.7729
vn -0.1870 -0.9416 -0.2799
vn -0.1520 -0.9793 -0.1339
vn -0.6151 -0.0000 -0.7884
vn -0.1520 0.9793 -0.1339
vn -0.6039 -0.1948 -0.7729
vn -0.2581 0.9222 -0.2878
vn -0.5706 -0.3820 -0.7270
vn -0.3571 0.8299 -0.4287
vn -0.5167 -0.5546 -0.6523
vn -0.4445 0.7058 -0.5517
vn -0.4445 -0.7058 -0.5517
vn -0.5167 0.5546 -0.6523
vn -0.3571 -0.8299 -0.4287
vn -0.3795 -0.5546 -0.7406
vn -0.3283 0.7058 -0.6278
vn -0.3283 -0.7058 -0.6278
vn -0.3795 0.5546 -0.7406
vn -0.2666 -0.8299 -0.4901
vn -0.4178 0.3820 -0.8243
vn -0.1970 -0.9222 -0.3326
vn -0.4415 0.1948 -0.8759
vn -0.1230 -0.9793 -0.1610
vn -0.4495 -0.0000 -0.8933
vn -0.1230 0.9793 -0.1610
vn -0.4415 -0.1948 -0.8759
vn -0.1970 0.9222 -0.3326
vn -0.3427 -0.4449 -0.8274
vn -0.2325 0.7942 -0.5614
vn -0.0892 -0.9793 -0.1819
vn -0.1936 0.1220 -0.9735
vn -0.2666 -0.0000 -0.9638
vn -0.0892 0.9793 -0.1819
vn -0.2622 -0.1948 -0.9452
vn -0.1283 0.9222 -0.3647
vn -0.2489 -0.3820 -0.8900
vn -0.1658 0.8299 -0.5327
vn -0.2277 -0.5546 -0.8004
vn -0.1995 0.7058 -0.6798
vn -0.1995 -0.7058 -0.6798
vn -0.2277 0.5546 -0.8004
vn -0.1658 -0.8299 -0.5327
vn -0.2490 0.3820 -0.8900
vn -0.0657 -0.9416 -0.3302
usemtl None
s 1
f 3/1/1 14/2/2 4/3/3
f 9/4/4 21/5/5 22/6/6
f 4/3/3 15/7/7 5/8/8
f 9/4/4 23/9/9 10/10/10
f 5/8/8 16/11/11 6/12/12
f 10/10/10 24/13/13 480/14/14
f 6/12/12 17/15/15 7/16/16
f 480/14/14 25/17/17 481/18/18
f 477/19/19 17/15/15 18/20/20
f 1/21/21 326/22/22 11/23/23
f 482/24/24 481/18/18 25/17/17
f 477/19/19 19/25/25 478/26/26
f 1/21/21 12/27/27 2/28/28
f 478/26/26 20/29/29 479/30/30
f 2/28/28 13/31/31 3/1/1
f 479/30/30 21/5/5 8/32/32
f 19/25/25 35/33/33 20/29/29
f 12/27/27 28/34/34 13/31/31
f 20/29/29 36/35/35 21/5/5
f 13/31/31 29/36/36 14/2/2
f 21/5/5 37/37/37 22/6/6
f 15/7/7 29/36/36 30/38/38
f 22/6/6 38/39/39 23/9/9
f 15/7/7 31/40/40 16/11/11
f 23/9/9 39/41/41 24/13/13
f 17/15/15 31/40/40 32/42/42
f 24/13/13 40/43/43 25/17/17
f 18/20/20 32/42/42 33/44/44
f 11/23/23 326/45/22 26/46/45
f 482/47/24 25/17/17 40/43/43
f 18/20/20 34/48/46 19/25/25
f 11/23/23 27/49/47 12/27/27
f 38/39/39 54/50/48 39/41/41
f 31/40/40 47/51/49 32/42/42
f 39/41/41 55/52/50 40/43/43
f 32/42/42 48/53/51 33/44/44
f 26/46/45 326/54/22 41/55/52
f 482/56/24 40/43/43 55/52/50
f 33/44/44 49/57/53 34/48/46
f 26/46/45 42/58/54 27/49/47
f 34/48/46 50/59/55 35/33/33
f 27/49/47 43/60/56 28/34/34
f 36/35/35 50/59/55 51/61/57
f 28/34/34 44/62/58 29/36/36
f 36/35/35 52/63/59 37/37/37
f 29/36/36 45/64/60 30/38/38
f 37/37/37 53/65/61 38/39/39
f 30/38/38 46/66/62 31/40/40
f 51/61/57 65/67/63 66/68/64
f 43/60/56 59/69/65 44/62/58
f 52/63/59 66/68/64 67/70/66
f 44/62/58 60/71/67 45/64/60
f 53/65/61 67/70/66 68/72/68
f 45/64/60 61/73/69 46/66/62
f 53/65/61 69/74/70 54/50/48
f 46/66/62 62/75/71 47/51/49
f 55/52/50 69/74/70 70/76/72
f 48/53/51 62/75/71 63/77/73
f 41/55/52 326/78/22 56/79/74
f 482/80/24 55/52/50 70/76/72
f 48/53/51 64/81/75 49/57/53
f 41/55/52 57/82/76 42/58/54
f 50/59/55 64/81/75 65/67/63
f 43/60/56 57/82/76 58/83/77
f 69/74/70 85/84/78 70/76/72
f 63/77/73 77/85/79 78/86/80
f 56/79/74 326/87/22 71/88/81
f 482/89/24 70/76/72 85/84/78
f 63/77/73 79/90/82 64/81/75
f 57/82/76 71/88/81 72/91/83
f 65/67/63 79/90/82 80/92/84
f 57/82/76 73/93/85 58/83/77
f 65/67/63 81/94/86 66/68/64
f 58/83/77 74/95/87 59/69/65
f 66/68/64 82/96/88 67/70/66
f 60/71/67 74/95/87 75/97/89
f 68/72/68 82/96/88 83/98/90
f 60/71/67 76/99/91 61/73/69
f 69/74/70 83/98/90 84/100/92
f 61/73/69 77/85/79 62/75/71
f 73/93/85 89/101/93 74/95/87
f 81/94/86 97/102/94 82/96/88
f 74/95/87 90/103/95 75/97/89
f 83/98/90 97/102/94 98/104/96
f 75/97/89 91/105/97 76/99/91
f 84/100/92 98/104/96 99/106/98
f 77/85/79 91/105/97 92/107/99
f 85/84/78 99/106/98 100/108/100
f 78/86/80 92/107/99 93/109/101
f 71/88/81 326/110/22 86/111/102
f 482/112/24 85/84/78 100/108/100
f 78/86/80 94/113/103 79/90/82
f 71/88/81 87/114/104 72/91/83
f 79/90/82 95/115/105 80/92/84
f 72/91/83 88/116/106 73/93/85
f 80/92/84 96/117/107 81/94/86
f 93/109/101 107/118/108 108/119/109
f 86/111/102 326/120/22 101/121/110
f 482/122/24 100/108/100 115/123/111
f 93/109/101 109/124/112 94/113/103
f 86/111/102 102/125/113 87/114/104
f 95/115/105 109/124/112 110/126/114
f 87/114/104 103/127/115 88/116/106
f 95/115/105 111/128/116 96/117/107
f 88/116/106 104/129/117 89/101/93
f 96/117/107 112/130/118 97/102/94
f 90/103/95 104/129/117 105/131/119
f 98/104/96 112/130/118 113/132/120
f 90/103/95 106/133/121 91/105/97
f 99/106/98 113/132/120 114/134/122
f 92/107/99 106/133/121 107/118/108
f 99/106/98 115/123/111 100/108/100
f 111/128/116 127/135/123 112/130/118
f 105/131/119 119/136/124 120/137/125
f 113/132/120 127/135/123 128/138/126
f 105/131/119 121/139/127 106/133/121
f 113/132/120 129/140/128 114/134/122
f 107/118/108 121/139/127 122/141/129
f 114/134/122 130/142/130 115/123/111
f 108/119/109 122/141/129 123/143/131
f 101/121/110 326/144/22 116/145/132
f 482/146/24 115/123/111 130/142/130
f 108/119/109 124/147/133 109/124/112
f 102/125/113 116/145/132 117/148/134
f 110/126/114 124/147/133 125/149/135
f 102/125/113 118/150/136 103/127/115
f 110/126/114 126/151/137 111/128/116
f 103/127/115 119/136/124 104/129/117
f 116/145/132 326/152/22 131/153/138
f 482/154/24 130/142/130 145/155/139
f 123/143/131 139/156/140 124/147/133
f 117/148/134 131/153/138 132/157/141
f 125/149/135 139/156/140 140/158/142
f 118/150/136 132/157/141 133/159/143
f 125/149/135 141/160/144 126/151/137
f 118/150/136 134/161/145 119/136/124
f 126/151/137 142/162/146 127/135/123
f 120/137/125 134/161/145 135/163/147
f 128/138/126 142/162/146 143/164/148
f 120/137/125 136/165/149 121/139/127
f 128/138/126 144/166/150 129/140/128
f 122/141/129 136/165/149 137/167/151
f 129/140/128 145/155/139 130/142/130
f 123/143/131 137/167/151 138/168/152
f 134/161/145 150/169/153 135/163/147
f 143/164/148 157/170/154 158/171/155
f 135/163/147 151/172/156 136/165/149
f 144/166/150 158/171/155 159/173/157
f 137/167/151 151/172/156 152/174/158
f 144/166/150 160/175/159 145/155/139
f 138/168/152 152/174/158 153/176/160
f 131/153/138 326/177/22 146/178/161
f 482/179/24 145/155/139 160/175/159
f 138/168/152 154/180/162 139/156/140
f 131/153/138 147/181/163 132/157/141
f 140/158/142 154/180/162 155/182/164
f 133/159/143 147/181/163 148/183/165
f 140/158/142 156/184/166 141/160/144
f 133/159/143 149/185/167 134/161/145
f 141/160/144 157/170/154 142/162/146
f 153/176/160 169/186/168 154/180/162
f 147/181/163 161/187/169 162/188/170
f 155/182/164 169/186/168 170/189/171
f 147/181/163 163/190/172 148/183/165
f 155/182/164 171/191/173 156/184/166
f 148/183/165 164/192/174 149/185/167
f 156/184/166 172/193/175 157/170/154
f 149/185/167 165/194/176 150/169/153
f 158/171/155 172/193/175 173/195/177
f 150/169/153 166/196/178 151/172/156
f 158/171/155 174/197/179 159/173/157
f 152/174/158 166/196/178 167/198/180
f 160/175/159 174/197/179 175/199/181
f 153/176/160 167/198/180 168/200/182
f 146/178/161 326/201/22 161/187/169
f 482/202/24 160/175/159 175/199/181
f 172/193/175 188/203/183 173/195/177
f 165/194/176 181/204/184 166/196/178
f 173/195/177 189/205/185 174/197/179
f 166/196/178 182/206/186 167/198/180
f 174/197/179 190/207/187 175/199/181
f 168/200/182 182/206/186 183/208/188
f 161/187/169 326/209/22 176/210/189
f 482/211/24 175/199/181 190/207/187
f 168/200/182 184/212/190 169/186/168
f 161/187/169 177/213/191 162/188/170
f 169/186/168 185/214/192 170/189/171
f 162/188/170 178/215/193 163/190/172
f 170/189/171 186/216/194 171/191/173
f 163/190/172 179/217/195 164/192/174
f 172/193/175 186/216/194 187/218/196
f 165/194/176 179/217/195 180/219/197
f 184/212/190 200/220/198 185/214/192
f 177/213/191 193/221/199 178/215/193
f 185/214/192 201/222/200 186/216/194
f 178/215/193 194/223/201 179/217/195
f 186/216/194 202/224/202 187/218/196
f 180/219/197 194/223/201 195/225/203
f 188/203/183 202/224/202 203/226/204
f 180/219/197 196/227/205 181/204/184
f 189/205/185 203/226/204 204/228/206
f 182/206/186 196/227/205 197/229/207
f 189/205/185 205/230/208 190/207/187
f 183/208/188 197/229/207 198/231/209
f 176/210/189 326/232/22 191/233/210
f 482/234/24 190/207/187 205/230/208
f 183/208/188 199/235/211 184/212/190
f 177/213/191 191/233/210 192/236/212
f 203/226/204 219/237/213 204/228/206
f 197/229/207 211/238/214 212/239/215
f 205/230/208 219/237/213 220/240/216
f 198/231/209 212/239/215 213/241/217
f 191/233/210 326/242/22 206/243/218
f 482/244/24 205/230/208 220/240/216
f 198/231/209 214/245/219 199/235/211
f 191/233/210 207/246/220 192/236/212
f 200/220/198 214/245/219 215/247/221
f 192/236/212 208/248/222 193/221/199
f 200/220/198 216/249/223 201/222/200
f 193/221/199 209/250/224 194/223/201
f 201/222/200 217/251/225 202/224/202
f 195/225/203 209/250/224 210/252/226
f 203/226/204 217/251/225 218/253/227
f 195/225/203 211/238/214 196/227/205
f 208/248/222 222/254/228 223/255/229
f 215/247/221 231/256/230 216/249/223
f 208/248/222 224/257/231 209/250/224
f 216/249/223 232/258/232 217/251/225
f 210/252/226 224/257/231 225/259/233
f 218/253/227 232/258/232 233/260/234
f 210/252/226 226/261/235 211/238/214
f 218/253/227 234/262/236 219/237/213
f 212/239/215 226/261/235 227/263/237
f 220/240/216 234/262/236 235/264/238
f 213/241/217 227/263/237 228/265/239
f 206/243/218 326/266/22 221/267/240
f 482/268/24 220/240/216 235/264/238
f 213/241/217 229/269/241 214/245/219
f 206/243/218 222/254/228 207/246/220
f 215/247/221 229/269/241 230/270/242
f 227/263/237 241/271/243 242/272/244
f 235/264/238 249/273/245 250/274/246
f 228/265/239 242/272/244 243/275/247
f 221/267/240 326/276/22 236/277/248
f 482/278/24 235/264/238 250/274/246
f 228/265/239 244/279/249 229/269/241
f 221/267/240 237/280/250 222/254/228
f 230/270/242 244/279/249 245/281/251
f 223/255/229 237/280/250 238/282/252
f 230/270/242 246/283/253 231/256/230
f 223/255/229 239/284/254 224/257/231
f 231/256/230 247/285/255 232/258/232
f 225/259/233 239/284/254 240/286/256
f 233/260/234 247/285/255 248/287/257
f 225/259/233 241/271/243 226/261/235
f 233/260/234 249/273/245 234/262/236
f 245/281/251 261/288/258 246/283/253
f 238/282/252 254/289/259 239/284/254
f 247/285/255 261/288/258 262/290/260
f 240/286/256 254/289/259 255/291/261
f 248/287/257 262/290/260 263/292/262
f 240/286/256 256/293/263 241/271/243
f 248/287/257 264/294/264 249/273/245
f 242/272/244 256/293/263 257/295/265
f 249/273/245 265/296/266 250/274/246
f 243/275/247 257/295/265 258/297/267
f 236/277/248 326/298/22 251/299/268
f 482/300/24 250/274/246 265/296/266
f 243/275/247 259/301/269 244/279/249
f 236/277/248 252/302/270 237/280/250
f 245/281/251 259/301/269 260/303/271
f 237/280/250 253/304/272 238/282/252
f 264/294/264 280/305/273 265/296/266
f 258/297/267 272/306/274 273/307/275
f 251/299/268 326/308/22 266/309/276
f 482/310/24 265/296/266 280/305/273
f 258/297/267 274/311/277 259/301/269
f 251/299/268 267/312/278 252/302/270
f 260/303/271 274/311/277 275/313/279
f 252/302/270 268/314/280 253/304/272
f 260/303/271 276/315/281 261/288/258
f 253/304/272 269/316/282 254/289/259
f 261/288/258 277/317/283 262/290/260
f 255/291/261 269/316/282 270/318/284
f 263/292/262 277/317/283 278/319/285
f 255/291/261 271/320/286 256/293/263
f 263/292/262 279/321/287 264/294/264
f 257/295/265 271/320/286 272/306/274
f 268/314/280 284/322/288 269/316/282
f 276/315/281 292/323/289 277/317/283
f 270/318/284 284/322/288 285/324/290
f 278/319/285 292/323/289 293/325/291
f 271/320/286 285/324/290 286/326/292
f 278/319/285 294/327/293 279/321/287
f 272/306/274 286/326/292 287/328/294
f 280/305/273 294/327/293 295/329/295
f 273/307/275 287/328/294 288/330/296
f 266/309/276 326/331/22 281/332/297
f 482/333/24 280/305/273 295/329/295
f 273/307/275 289/334/298 274/311/277
f 266/309/276 282/335/299 267/312/278
f 275/313/279 289/334/298 290/336/300
f 267/312/278 283/337/301 268/314/280
f 275/313/279 291/338/302 276/315/281
f 288/330/296 302/339/303 303/340/304
f 281/332/297 326/341/22 296/342/305
f 482/343/24 295/329/295 310/344/306
f 288/330/296 304/345/307 289/334/298
f 281/332/297 297/346/308 282/335/299
f 290/336/300 304/345/307 305/347/309
f 282/335/299 298/348/310 283/337/301
f 290/336/300 306/349/311 291/338/302
f 283/337/301 299/350/312 284/322/288
f 291/338/302 307/351/313 292/323/289
f 284/322/288 300/352/314 285/324/290
f 293/325/291 307/351/313 308/353/315
f 286/326/292 300/352/314 301/354/316
f 293/325/291 309/355/317 294/327/293
f 287/328/294 301/354/316 302/339/303
f 294/327/293 310/344/306 295/329/295
f 306/349/311 322/356/318 307/351/313
f 299/350/312 315/357/319 300/352/314
f 308/353/315 322/356/318 323/358/320
f 301/354/316 315/357/319 316/359/321
f 309/355/317 323/358/320 324/360/322
f 302/339/303 316/359/321 317/361/323
f 309/355/317 325/362/324 310/344/306
f 303/340/304 317/361/323 318/363/325
f 296/342/305 326/364/22 311/365/326
f 482/366/24 310/344/306 325/362/324
f 303/340/304 319/367/327 304/345/307
f 297/346/308 311/365/326 312/368/328
f 305/347/309 319/367/327 320/369/329
f 298/348/310 312/368/328 313/370/330
f 305/347/309 321/371/331 306/349/311
f 298/348/310 314/372/332 299/350/312
f 482/373/24 325/362/324 341/374/333
f 318/363/325 335/375/334 319/367/327
f 311/365/326 328/376/335 312/368/328
f 320/369/329 335/375/334 336/377/336
f 312/368/328 329/378/337 313/370/330
f 320/369/329 337/379/338 321/371/331
f 313/370/330 330/380/339 314/372/332
f 321/371/331 338/381/340 322/356/318
f 314/372/332 331/382/341 315/357/319
f 323/358/320 338/381/340 339/383/342
f 316/359/321 331/382/341 332/384/343
f 323/358/320 340/385/344 324/360/322
f 317/361/323 332/384/343 333/386/345
f 324/360/322 341/374/333 325/362/324
f 318/363/325 333/386/345 334/387/346
f 311/365/326 326/388/22 327/389/347
f 338/381/340 354/390/348 339/383/342
f 332/384/343 346/391/349 347/392/350
f 339/383/342 355/393/351 340/385/344
f 333/386/345 347/392/350 348/394/352
f 341/374/333 355/393/351 356/395/353
f 334/387/346 348/394/352 349/396/354
f 327/389/347 326/397/22 342/398/355
f 482/399/24 341/374/333 356/395/353
f 334/387/346 350/400/356 335/375/334
f 327/389/347 343/401/357 328/376/335
f 336/377/336 350/400/356 351/402/358
f 328/376/335 344/403/359 329/378/337
f 336/377/336 352/404/360 337/379/338
f 329/378/337 345/405/361 330/380/339
f 337/379/338 353/406/362 338/381/340
f 330/380/339 346/391/349 331/382/341
f 342/398/355 358/407/363 343/401/357
f 351/402/358 365/408/364 366/409/365
f 343/401/357 359/410/366 344/403/359
f 351/402/358 367/411/367 352/404/360
f 344/403/359 360/412/368 345/405/361
f 352/404/360 368/413/369 353/406/362
f 346/391/349 360/412/368 361/414/370
f 354/390/348 368/413/369 369/415/371
f 347/392/350 361/414/370 362/416/372
f 355/393/351 369/415/371 370/417/373
f 348/394/352 362/416/372 363/418/374
f 356/395/353 370/417/373 371/419/375
f 349/396/354 363/418/374 364/420/376
f 342/398/355 326/421/22 357/422/377
f 482/423/24 356/395/353 371/419/375
f 349/396/354 365/408/364 350/400/356
f 362/424/372 376/425/378 377/426/379
f 370/427/373 384/428/380 385/429/381
f 363/430/374 377/426/379 378/431/382
f 371/432/375 385/429/381 386/433/383
f 364/434/376 378/431/382 379/435/384
f 357/436/377 326/437/22 372/438/385
f 482/439/24 371/432/375 386/433/383
f 364/434/376 380/440/386 365/441/364
f 357/436/377 373/442/387 358/443/363
f 366/444/365 380/440/386 381/445/388
f 358/443/363 374/446/389 359/447/366
f 366/444/365 382/448/390 367/449/367
f 359/447/366 375/450/391 360/451/368
f 368/452/369 382/448/390 383/453/392
f 360/451/368 376/425/378 361/454/370
f 369/455/371 383/453/392 384/428/380
f 381/445/388 395/456/393 396/457/394
f 373/442/387 389/458/395 374/446/389
f 381/445/388 397/459/396 382/448/390
f 374/446/389 390/460/397 375/450/391
f 382/448/390 398/461/398 383/453/392
f 375/450/391 391/462/399 376/425/378
f 384/428/380 398/461/398 399/463/400
f 377/426/379 391/462/399 392/464/401
f 384/428/380 400/465/402 385/429/381
f 378/431/382 392/464/401 393/466/403
f 385/429/381 401/467/404 386/433/383
f 379/435/384 393/466/403 394/468/405
f 372/438/385 326/469/22 387/470/406
f 482/471/24 386/433/383 401/467/404
f 379/435/384 395/456/393 380/440/386
f 372/438/385 388/472/407 373/442/387
f 400/465/402 414/473/408 415/474/409
f 393/466/403 407/475/410 408/476/411
f 400/465/402 416/477/412 401/467/404
f 394/468/405 408/476/411 409/478/413
f 387/470/406 326/479/22 402/480/414
f 482/481/24 401/467/404 416/477/412
f 394/468/405 410/482/415 395/456/393
f 387/470/406 403/483/416 388/472/407
f 396/457/394 410/482/415 411/484/417
f 388/472/407 404/485/418 389/458/395
f 396/457/394 412/486/419 397/459/396
f 389/458/395 405/487/420 390/460/397
f 397/459/396 413/488/421 398/461/398
f 391/462/399 405/487/420 406/489/422
f 399/463/400 413/488/421 414/473/408
f 392/464/401 406/489/422 407/475/410
f 403/483/416 419/490/423 404/485/418
f 411/484/417 427/491/424 412/486/419
f 404/485/418 420/492/425 405/487/420
f 412/486/419 428/493/426 413/488/421
f 405/487/420 421/494/427 406/489/422
f 414/473/408 428/493/426 429/495/428
f 407/475/410 421/494/427 422/496/429
f 414/473/408 430/497/430 415/474/409
f 408/476/411 422/496/429 423/498/431
f 416/477/412 430/497/430 431/499/432
f 409/478/413 423/498/431 424/500/433
f 402/480/414 326/501/22 417/502/434
f 482/503/24 416/477/412 431/499/432
f 409/478/413 425/504/435 410/482/415
f 402/480/414 418/505/436 403/483/416
f 410/482/415 426/506/437 411/484/417
f 423/498/431 437/507/438 438/508/439
f 431/499/432 445/509/440 446/510/441
f 424/500/433 438/508/439 439/511/442
f 417/502/434 326/512/22 432/513/443
f 482/514/24 431/499/432 446/510/441
f 424/500/433 440/515/444 425/504/435
f 417/502/434 433/516/445 418/505/436
f 425/504/435 441/517/446 426/506/437
f 419/490/423 433/516/445 434/518/447
f 426/506/437 442/519/448 427/491/424
f 419/490/423 435/520/449 420/492/425
f 427/491/424 443/521/450 428/493/426
f 420/492/425 436/522/451 421/494/427
f 429/495/428 443/521/450 444/523/452
f 422/496/429 436/522/451 437/507/438
f 429/495/428 445/509/440 430/497/430
f 441/517/446 457/524/453 442/519/448
f 434/518/447 450/525/454 435/520/449
f 442/519/448 458/526/455 443/521/450
f 436/522/451 450/525/454 451/527/456
f 444/523/452 458/526/455 459/528/457
f 437/507/438 451/527/456 452/529/458
f 444/523/452 460/530/459 445/509/440
f 438/508/439 452/529/458 453/531/460
f 445/509/440 461/532/461 446/510/441
f 439/511/442 453/531/460 454/533/462
f 432/513/443 326/534/22 447/535/463
f 482/536/24 446/510/441 461/532/461
f 439/511/442 455/537/464 440/515/444
f 432/513/443 448/538/465 433/516/445
f 440/515/444 456/539/466 441/517/446
f 433/516/445 449/540/467 434/518/447
f 460/530/459 476/541/468 461/532/461
f 454/533/462 468/542/469 469/543/470
f 447/535/463 326/544/22 462/545/471
f 482/546/24 461/532/461 476/541/468
f 454/533/462 470/547/472 455/537/464
f 447/535/463 463/548/473 448/538/465
f 455/537/464 471/549/474 456/539/466
f 448/538/465 464/550/475 449/540/467
f 456/539/466 472/551/476 457/524/453
f 449/540/467 465/552/477 450/525/454
f 457/524/453 473/553/478 458/526/455
f 450/525/454 466/554/479 451/527/456
f 459/528/457 473/553/478 474/555/480
f 452/529/458 466/554/479 467/556/481
f 459/528/457 475/557/482 460/530/459
f 453/531/460 467/556/481 468/542/469
f 472/551/476 9/4/4 473/553/478
f 466/554/479 4/3/3 5/8/8
f 473/553/478 10/10/10 474/555/480
f 467/556/481 5/8/8 6/12/12
f 474/555/480 480/14/14 475/557/482
f 468/542/469 6/12/12 7/16/16
f 475/557/482 481/18/18 476/541/468
f 469/543/470 7/16/16 477/19/19
f 462/545/471 326/558/22 1/21/21
f 482/559/24 476/541/468 481/18/18
f 469/543/470 478/26/26 470/547/472
f 463/548/473 1/21/21 2/28/28
f 470/547/472 479/30/30 471/549/474
f 464/550/475 2/28/28 3/1/1
f 471/549/474 8/32/32 472/551/476
f 465/552/477 3/1/1 4/3/3
f 3/1/1 13/31/31 14/2/2
f 9/4/4 8/32/32 21/5/5
f 4/3/3 14/2/2 15/7/7
f 9/4/4 22/6/6 23/9/9
f 5/8/8 15/7/7 16/11/11
f 10/10/10 23/9/9 24/13/13
f 6/12/12 16/11/11 17/15/15
f 480/14/14 24/13/13 25/17/17
f 477/19/19 7/16/16 17/15/15
f 477/19/19 18/20/20 19/25/25
f 1/21/21 11/23/23 12/27/27
f 478/26/26 19/25/25 20/29/29
f 2/28/28 12/27/27 13/31/31
f 479/30/30 20/29/29 21/5/5
f 19/25/25 34/48/46 35/33/33
f 12/27/27 27/49/47 28/34/34
f 20/29/29 35/33/33 36/35/35
f 13/31/31 28/34/34 29/36/36
f 21/5/5 36/35/35 37/37/37
f 15/7/7 14/2/2 29/36/36
f 22/6/6 37/37/37 38/39/39
f 15/7/7 30/38/38 31/40/40
f 23/9/9 38/39/39 39/41/41
f 17/15/15 16/11/11 31/40/40
f 24/13/13 39/41/41 40/43/43
f 18/20/20 17/15/15 32/42/42
f 18/20/20 33/44/44 34/48/46
f 11/23/23 26/46/45 27/49/47
f 38/39/39 53/65/61 54/50/48
f 31/40/40 46/66/62 47/51/49
f 39/41/41 54/50/48 55/52/50
f 32/42/42 47/51/49 48/53/51
f 33/44/44 48/53/51 49/57/53
f 26/46/45 41/55/52 42/58/54
f 34/48/46 49/57/53 50/59/55
f 27/49/47 42/58/54 43/60/56
f 36/35/35 35/33/33 50/59/55
f 28/34/34 43/60/56 44/62/58
f 36/35/35 51/61/57 52/63/59
f 29/36/36 44/62/58 45/64/60
f 37/37/37 52/63/59 53/65/61
f 30/38/38 45/64/60 46/66/62
f 51/61/57 50/59/55 65/67/63
f 43/60/56 58/83/77 59/69/65
f 52/63/59 51/61/57 66/68/64
f 44/62/58 59/69/65 60/71/67
f 53/65/61 52/63/59 67/70/66
f 45/64/60 60/71/67 61/73/69
f 53/65/61 68/72/68 69/74/70
f 46/66/62 61/73/69 62/75/71
f 55/52/50 54/50/48 69/74/70
f 48/53/51 47/51/49 62/75/71
f 48/53/51 63/77/73 64/81/75
f 41/55/52 56/79/74 57/82/76
f 50/59/55 49/57/53 64/81/75
f 43/60/56 42/58/54 57/82/76
f 69/74/70 84/100/92 85/84/78
f 63/77/73 62/75/71 77/85/79
f 63/77/73 78/86/80 79/90/82
f 57/82/76 56/79/74 71/88/81
f 65/67/63 64/81/75 79/90/82
f 57/82/76 72/91/83 73/93/85
f 65/67/63 80/92/84 81/94/86
f 58/83/77 73/93/85 74/95/87
f 66/68/64 81/94/86 82/96/88
f 60/71/67 59/69/65 74/95/87
f 68/72/68 67/70/66 82/96/88
f 60/71/67 75/97/89 76/99/91
f 69/74/70 68/72/68 83/98/90
f 61/73/69 76/99/91 77/85/79
f 73/93/85 88/116/106 89/101/93
f 81/94/86 96/117/107 97/102/94
f 74/95/87 89/101/93 90/103/95
f 83/98/90 82/96/88 97/102/94
f 75/97/89 90/103/95 91/105/97
f 84/100/92 83/98/90 98/104/96
f 77/85/79 76/99/91 91/105/97
f 85/84/78 84/100/92 99/106/98
f 78/86/80 77/85/79 92/107/99
f 78/86/80 93/109/101 94/113/103
f 71/88/81 86/111/102 87/114/104
f 79/90/82 94/113/103 95/115/105
f 72/91/83 87/114/104 88/116/106
f 80/92/84 95/115/105 96/117/107
f 93/109/101 92/107/99 107/118/108
f 93/109/101 108/119/109 109/124/112
f 86/111/102 101/121/110 102/125/113
f 95/115/105 94/113/103 109/124/112
f 87/114/104 102/125/113 103/127/115
f 95/115/105 110/126/114 111/128/116
f 88/116/106 103/127/115 104/129/117
f 96/117/107 111/128/116 112/130/118
f 90/103/95 89/101/93 104/129/117
f 98/104/96 97/102/94 112/130/118
f 90/103/95 105/131/119 106/133/121
f 99/106/98 98/104/96 113/132/120
f 92/107/99 91/105/97 106/133/121
f 99/106/98 114/134/122 115/123/111
f 111/128/116 126/151/137 127/135/123
f 105/131/119 104/129/117 119/136/124
f 113/132/120 112/130/118 127/135/123
f 105/131/119 120/137/125 121/139/127
f 113/132/120 128/138/126 129/140/128
f 107/118/108 106/133/121 121/139/127
f 114/134/122 129/140/128 130/142/130
f 108/119/109 107/118/108 122/141/129
f 108/119/109 123/143/131 124/147/133
f 102/125/113 101/121/110 116/145/132
f 110/126/114 109/124/112 124/147/133
f 102/125/113 117/148/134 118/150/136
f 110/126/114 125/149/135 126/151/137
f 103/127/115 118/150/136 119/136/124
f 123/143/131 138/168/152 139/156/140
f 117/148/134 116/145/132 131/153/138
f 125/149/135 124/147/133 139/156/140
f 118/150/136 117/148/134 132/157/141
f 125/149/135 140/158/142 141/160/144
f 118/150/136 133/159/143 134/161/145
f 126/151/137 141/160/144 142/162/146
f 120/137/125 119/136/124 134/161/145
f 128/138/126 127/135/123 142/162/146
f 120/137/125 135/163/147 136/165/149
f 128/138/126 143/164/148 144/166/150
f 122/141/129 121/139/127 136/165/149
f 129/140/128 144/166/150 145/155/139
f 123/143/131 122/141/129 137/167/151
f 134/161/145 149/185/167 150/169/153
f 143/164/148 142/162/146 157/170/154
f 135/163/147 150/169/153 151/172/156
f 144/166/150 143/164/148 158/171/155
f 137/167/151 136/165/149 151/172/156
f 144/166/150 159/173/157 160/175/159
f 138/168/152 137/167/151 152/174/158
f 138/168/152 153/176/160 154/180/162
f 131/153/138 146/178/161 147/181/163
f 140/158/142 139/156/140 154/180/162
f 133/159/143 132/157/141 147/181/163
f 140/158/142 155/182/164 156/184/166
f 133/159/143 148/183/165 149/185/167
f 141/160/144 156/184/166 157/170/154
f 153/176/160 168/200/182 169/186/168
f 147/181/163 146/178/161 161/187/169
f 155/182/164 154/180/162 169/186/168
f 147/181/163 162/188/170 163/190/172
f 155/182/164 170/189/171 171/191/173
f 148/183/165 163/190/172 164/192/174
f 156/184/166 171/191/173 172/193/175
f 149/185/167 164/192/174 165/194/176
f 158/171/155 157/170/154 172/193/175
f 150/169/153 165/194/176 166/196/178
f 158/171/155 173/195/177 174/197/179
f 152/174/158 151/172/156 166/196/178
f 160/175/159 159/173/157 174/197/179
f 153/176/160 152/174/158 167/198/180
f 172/193/175 187/218/196 188/203/183
f 165/194/176 180/219/197 181/204/184
f 173/195/177 188/203/183 189/205/185
f 166/196/178 181/204/184 182/206/186
f 174/197/179 189/205/185 190/207/187
f 168/200/182 167/198/180 182/206/186
f 168/200/182 183/208/188 184/212/190
f 161/187/169 176/210/189 177/213/191
f 169/186/168 184/212/190 185/214/192
f 162/188/170 177/213/191 178/215/193
f 170/189/171 185/214/192 186/216/194
f 163/190/172 178/215/193 179/217/195
f 172/193/175 171/191/173 186/216/194
f 165/194/176 164/192/174 179/217/195
f 184/212/190 199/235/211 200/220/198
f 177/213/191 192/236/212 193/221/199
f 185/214/192 200/220/198 201/222/200
f 178/215/193 193/221/199 194/223/201
f 186/216/194 201/222/200 202/224/202
f 180/219/197 179/217/195 194/223/201
f 188/203/183 187/218/196 202/224/202
f 180/219/197 195/225/203 196/227/205
f 189/205/185 188/203/183 203/226/204
f 182/206/186 181/204/184 196/227/205
f 189/205/185 204/228/206 205/230/208
f 183/208/188 182/206/186 197/229/207
f 183/208/188 198/231/209 199/235/211
f 177/213/191 176/210/189 191/233/210
f 203/226/204 218/253/227 219/237/213
f 197/229/207 196/227/205 211/238/214
f 205/230/208 204/228/206 219/237/213
f 198/231/209 197/229/207 212/239/215
f 198/231/209 213/241/217 214/245/219
f 191/233/210 206/243/218 207/246/220
f 200/220/198 199/235/211 214/245/219
f 192/236/212 207/246/220 208/248/222
f 200/220/198 215/247/221 216/249/223
f 193/221/199 208/248/222 209/250/224
f 201/222/200 216/249/223 217/251/225
f 195/225/203 194/223/201 209/250/224
f 203/226/204 202/224/202 217/251/225
f 195/225/203 210/252/226 211/238/214
f 208/248/222 207/246/220 222/254/228
f 215/247/221 230/270/242 231/256/230
f 208/248/222 223/255/229 224/257/231
f 216/249/223 231/256/230 232/258/232
f 210/252/226 209/250/224 224/257/231
f 218/253/227 217/251/225 232/258/232
f 210/252/226 225/259/233 226/261/235
f 218/253/227 233/260/234 234/262/236
f 212/239/215 211/238/214 226/261/235
f 220/240/216 219/237/213 234/262/236
f 213/241/217 212/239/215 227/263/237
f 213/241/217 228/265/239 229/269/241
f 206/243/218 221/267/240 222/254/228
f 215/247/221 214/245/219 229/269/241
f 227/263/237 226/261/235 241/271/243
f 235/264/238 234/262/236 249/273/245
f 228/265/239 227/263/237 242/272/244
f 228/265/239 243/275/247 244/279/249
f 221/267/240 236/277/248 237/280/250
f 230/270/242 229/269/241 244/279/249
f 223/255/229 222/254/228 237/280/250
f 230/270/242 245/281/251 246/283/253
f 223/255/229 238/282/252 239/284/254
f 231/256/230 246/283/253 247/285/255
f 225/259/233 224/257/231 239/284/254
f 233/260/234 232/258/232 247/285/255
f 225/259/233 240/286/256 241/271/243
f 233/260/234 248/287/257 249/273/245
f 245/281/251 260/303/271 261/288/258
f 238/282/252 253/304/272 254/289/259
f 247/285/255 246/283/253 261/288/258
f 240/286/256 239/284/254 254/289/259
f 248/287/257 247/285/255 262/290/260
f 240/286/256 255/291/261 256/293/263
f 248/287/257 263/292/262 264/294/264
f 242/272/244 241/271/243 256/293/263
f 249/273/245 264/294/264 265/296/266
f 243/275/247 242/272/244 257/295/265
f 243/275/247 258/297/267 259/301/269
f 236/277/248 251/299/268 252/302/270
f 245/281/251 244/279/249 259/301/269
f 237/280/250 252/302/270 253/304/272
f 264/294/264 279/321/287 280/305/273
f 258/297/267 257/295/265 272/306/274
f 258/297/267 273/307/275 274/311/277
f 251/299/268 266/309/276 267/312/278
f 260/303/271 259/301/269 274/311/277
f 252/302/270 267/312/278 268/314/280
f 260/303/271 275/313/279 276/315/281
f 253/304/272 268/314/280 269/316/282
f 261/288/258 276/315/281 277/317/283
f 255/291/261 254/289/259 269/316/282
f 263/292/262 262/290/260 277/317/283
f 255/291/261 270/318/284 271/320/286
f 263/292/262 278/319/285 279/321/287
f 257/295/265 256/293/263 271/320/286
f 268/314/280 283/337/301 284/322/288
f 276/315/281 291/338/302 292/323/289
f 270/318/284 269/316/282 284/322/288
f 278/319/285 277/317/283 292/323/289
f 271/320/286 270/318/284 285/324/290
f 278/319/285 293/325/291 294/327/293
f 272/306/274 271/320/286 286/326/292
f 280/305/273 279/321/287 294/327/293
f 273/307/275 272/306/274 287/328/294
f 273/307/275 288/330/296 289/334/298
f 266/309/276 281/332/297 282/335/299
f 275/313/279 274/311/277 289/334/298
f 267/312/278 282/335/299 283/337/301
f 275/313/279 290/336/300 291/338/302
f 288/330/296 287/328/294 302/339/303
f 288/330/296 303/340/304 304/345/307
f 281/332/297 296/342/305 297/346/308
f 290/336/300 289/334/298 304/345/307
f 282/335/299 297/346/308 298/348/310
f 290/336/300 305/347/309 306/349/311
f 283/337/301 298/348/310 299/350/312
f 291/338/302 306/349/311 307/351/313
f 284/322/288 299/350/312 300/352/314
f 293/325/291 292/323/289 307/351/313
f 286/326/292 285/324/290 300/352/314
f 293/325/291 308/353/315 309/355/317
f 287/328/294 286/326/292 301/354/316
f 294/327/293 309/355/317 310/344/306
f 306/349/311 321/371/331 322/356/318
f 299/350/312 314/372/332 315/357/319
f 308/353/315 307/351/313 322/356/318
f 301/354/316 300/352/314 315/357/319
f 309/355/317 308/353/315 323/358/320
f 302/339/303 301/354/316 316/359/321
f 309/355/317 324/360/322 325/362/324
f 303/340/304 302/339/303 317/361/323
f 303/340/304 318/363/325 319/367/327
f 297/346/308 296/342/305 311/365/326
f 305/347/309 304/345/307 319/367/327
f 298/348/310 297/346/308 312/368/328
f 305/347/309 320/369/329 321/371/331
f 298/348/310 313/370/330 314/372/332
f 318/363/325 334/387/346 335/375/334
f 311/365/326 327/389/347 328/376/335
f 320/369/329 319/367/327 335/375/334
f 312/368/328 328/376/335 329/378/337
f 320/369/329 336/377/336 337/379/338
f 313/370/330 329/378/337 330/380/339
f 321/371/331 337/379/338 338/381/340
f 314/372/332 330/380/339 331/382/341
f 323/358/320 322/356/318 338/381/340
f 316/359/321 315/357/319 331/382/341
f 323/358/320 339/383/342 340/385/344
f 317/361/323 316/359/321 332/384/343
f 324/360/322 340/385/344 341/374/333
f 318/363/325 317/361/323 333/386/345
f 338/381/340 353/406/362 354/390/348
f 332/384/343 331/382/341 346/391/349
f 339/383/342 354/390/348 355/393/351
f 333/386/345 332/384/343 347/392/350
f 341/374/333 340/385/344 355/393/351
f 334/387/346 333/386/345 348/394/352
f 334/387/346 349/396/354 350/400/356
f 327/389/347 342/398/355 343/401/357
f 336/377/336 335/375/334 350/400/356
f 328/376/335 343/401/357 344/403/359
f 336/377/336 351/402/358 352/404/360
f 329/378/337 344/403/359 345/405/361
f 337/379/338 352/404/360 353/406/362
f 330/380/339 345/405/361 346/391/349
f 342/398/355 357/422/377 358/407/363
f 351/402/358 350/400/356 365/408/364
f 343/401/357 358/407/363 359/410/366
f 351/402/358 366/409/365 367/411/367
f 344/403/359 359/410/366 360/412/368
f 352/404/360 367/411/367 368/413/369
f 346/391/349 345/405/361 360/412/368
f 354/390/348 353/406/362 368/413/369
f 347/392/350 346/391/349 361/414/370
f 355/393/351 354/390/348 369/415/371
f 348/394/352 347/392/350 362/416/372
f 356/395/353 355/393/351 370/417/373
f 349/396/354 348/394/352 363/418/374
f 349/396/354 364/420/376 365/408/364
f 362/424/372 361/454/370 376/425/378
f 370/427/373 369/455/371 384/428/380
f 363/430/374 362/424/372 377/426/379
f 371/432/375 370/427/373 385/429/381
f 364/434/376 363/430/374 378/431/382
f 364/434/376 379/435/384 380/440/386
f 357/436/377 372/438/385 373/442/387
f 366/444/365 365/441/364 380/440/386
f 358/443/363 373/442/387 374/446/389
f 366/444/365 381/445/388 382/448/390
f 359/447/366 374/446/389 375/450/391
f 368/452/369 367/449/367 382/448/390
f 360/451/368 375/450/391 376/425/378
f 369/455/371 368/452/369 383/453/392
f 381/445/388 380/440/386 395/456/393
f 373/442/387 388/472/407 389/458/395
f 381/445/388 396/457/394 397/459/396
f 374/446/389 389/458/395 390/460/397
f 382/448/390 397/459/396 398/461/398
f 375/450/391 390/460/397 391/462/399
f 384/428/380 383/453/392 398/461/398
f 377/426/379 376/425/378 391/462/399
f 384/428/380 399/463/400 400/465/402
f 378/431/382 377/426/379 392/464/401
f 385/429/381 400/465/402 401/467/404
f 379/435/384 378/431/382 393/466/403
f 379/435/384 394/468/405 395/456/393
f 372/438/385 387/470/406 388/472/407
f 400/465/402 399/463/400 414/473/408
f 393/466/403 392/464/401 407/475/410
f 400/465/402 415/474/409 416/477/412
f 394/468/405 393/466/403 408/476/411
f 394/468/405 409/478/413 410/482/415
f 387/470/406 402/480/414 403/483/416
f 396/457/394 395/456/393 410/482/415
f 388/472/407 403/483/416 404/485/418
f 396/457/394 411/484/417 412/486/419
f 389/458/395 404/485/418 405/487/420
f 397/459/396 412/486/419 413/488/421
f 391/462/399 390/460/397 405/487/420
f 399/463/400 398/461/398 413/488/421
f 392/464/401 391/462/399 406/489/422
f 403/483/416 418/505/436 419/490/423
f 411/484/417 426/506/437 427/491/424
f 404/485/418 419/490/423 420/492/425
f 412/486/419 427/491/424 428/493/426
f 405/487/420 420/492/425 421/494/427
f 414/473/408 413/488/421 428/493/426
f 407/475/410 406/489/422 421/494/427
f 414/473/408 429/495/428 430/497/430
f 408/476/411 407/475/410 422/496/429
f 416/477/412 415/474/409 430/497/430
f 409/478/413 408/476/411 423/498/431
f 409/478/413 424/500/433 425/504/435
f 402/480/414 417/502/434 418/505/436
f 410/482/415 425/504/435 426/506/437
f 423/498/431 422/496/429 437/507/438
f 431/499/432 430/497/430 445/509/440
f 424/500/433 423/498/431 438/508/439
f 424/500/433 439/511/442 440/515/444
f 417/502/434 432/513/443 433/516/445
f 425/504/435 440/515/444 441/517/446
f 419/490/423 418/505/436 433/516/445
f 426/506/437 441/517/446 442/519/448
f 419/490/423 434/518/447 435/520/449
f 427/491/424 442/519/448 443/521/450
f 420/492/425 435/520/449 436/522/451
f 429/495/428 428/493/426 443/521/450
f 422/496/429 421/494/427 436/522/451
f 429/495/428 444/523/452 445/509/440
f 441/517/446 456/539/466 457/524/453
f 434/518/447 449/540/467 450/525/454
f 442/519/448 457/524/453 458/526/455
f 436/522/451 435/520/449 450/525/454
f 444/523/452 443/521/450 458/526/455
f 437/507/438 436/522/451 451/527/456
f 444/523/452 459/528/457 460/530/459
f 438/508/439 437/507/438 452/529/458
f 445/509/440 460/530/459 461/532/461
f 439/511/442 438/508/439 453/531/460
f 439/511/442 454/533/462 455/537/464
f 432/513/443 447/535/463 448/538/465
f 440/515/444 455/537/464 456/539/466
f 433/516/445 448/538/465 449/540/467
f 460/530/459 475/557/482 476/541/468
f 454/533/462 453/531/460 468/542/469
f 454/533/462 469/543/470 470/547/472
f 447/535/463 462/545/471 463/548/473
f 455/537/464 470/547/472 471/549/474
f 448/538/465 463/548/473 464/550/475
f 456/539/466 471/549/474 472/551/476
f 449/540/467 464/550/475 465/552/477
f 457/524/453 472/551/476 473/553/478
f 450/525/454 465/552/477 466/554/479
f 459/528/457 458/526/455 473/553/478
f 452/529/458 451/527/456 466/554/479
f 459/528/457 474/555/480 475/557/482
f 453/531/460 452/529/458 467/556/481
f 472/551/476 8/32/32 9/4/4
f 466/554/479 465/552/477 4/3/3
f 473/553/478 9/4/4 10/10/10
f 467/556/481 466/554/479 5/8/8
f 474/555/480 10/10/10 480/14/14
f 468/542/469 467/556/481 6/12/12
f 475/557/482 480/14/14 481/18/18
f 469/543/470 468/542/469 7/16/16
f 469/543/470 477/19/19 478/26/26
f 463/548/473 462/545/471 1/21/21
f 470/547/472 478/26/26 479/30/30
f 464/550/475 463/548/473 2/28/28
f 471/549/474 479/30/30 8/32/32
f 465/552/477 464/550/475 3/1/1
